<svg width="103" height="68" viewBox="0 0 103 68" fill="none" xmlns="http://www.w3.org/2000/svg">
<path d="M22.8313 63V53.13H28.9353V54.096H23.9653V57.498H28.6553V58.464H23.9653V63H22.8313ZM33.0232 56.014C33.8912 56.014 34.5352 56.238 34.9552 56.686C35.3845 57.1247 35.5992 57.7967 35.5992 58.702V63H34.4932V61.838C34.3158 62.2393 34.0452 62.552 33.6812 62.776C33.3172 62.9907 32.8972 63.098 32.4212 63.098C31.9825 63.098 31.5765 63.0093 31.2032 62.832C30.8392 62.6547 30.5498 62.4073 30.3352 62.09C30.1205 61.7727 30.0132 61.4227 30.0132 61.04C30.0132 60.5267 30.1438 60.13 30.4052 59.85C30.6665 59.5607 31.0958 59.3553 31.6932 59.234C32.2905 59.1033 33.1212 59.038 34.1852 59.038H34.4932V58.576C34.4932 58.0067 34.3765 57.596 34.1432 57.344C33.9098 57.0827 33.5318 56.952 33.0092 56.952C32.2252 56.952 31.4458 57.1947 30.6712 57.68L30.2932 56.854C30.6478 56.602 31.0725 56.4013 31.5672 56.252C32.0712 56.0933 32.5565 56.014 33.0232 56.014ZM32.5752 62.202C33.1352 62.202 33.5925 62.0153 33.9472 61.642C34.3112 61.2593 34.4932 60.7693 34.4932 60.172V59.766H34.2412C33.4198 59.766 32.7945 59.8033 32.3652 59.878C31.9358 59.9433 31.6278 60.06 31.4412 60.228C31.2638 60.3867 31.1752 60.6247 31.1752 60.942C31.1752 61.306 31.3058 61.6093 31.5672 61.852C31.8378 62.0853 32.1738 62.202 32.5752 62.202ZM40.559 63.098C39.887 63.098 39.3037 62.9533 38.809 62.664C38.3143 62.3747 37.9317 61.9687 37.661 61.446C37.3997 60.914 37.269 60.2933 37.269 59.584C37.269 58.8747 37.4043 58.254 37.675 57.722C37.955 57.1807 38.3423 56.7607 38.837 56.462C39.341 56.1633 39.929 56.014 40.601 56.014C41.0583 56.014 41.5063 56.098 41.945 56.266C42.3837 56.4247 42.7383 56.6393 43.009 56.91L42.631 57.75C41.987 57.2273 41.3337 56.966 40.671 56.966C39.971 56.966 39.425 57.1947 39.033 57.652C38.641 58.1093 38.445 58.7533 38.445 59.584C38.445 60.4053 38.641 61.04 39.033 61.488C39.425 61.936 39.971 62.16 40.671 62.16C41.3337 62.16 41.987 61.8987 42.631 61.376L43.009 62.216C42.7197 62.4867 42.3557 62.7013 41.917 62.86C41.4783 63.0187 41.0257 63.098 40.559 63.098ZM50.0862 59.766H45.1022C45.1396 60.5593 45.3542 61.1613 45.7462 61.572C46.1382 61.9733 46.6936 62.174 47.4122 62.174C48.2056 62.174 48.9336 61.9033 49.5962 61.362L49.9742 62.188C49.6756 62.468 49.2929 62.692 48.8262 62.86C48.3596 63.0187 47.8836 63.098 47.3982 63.098C46.3342 63.098 45.4942 62.7853 44.8782 62.16C44.2716 61.5347 43.9682 60.6713 43.9682 59.57C43.9682 58.87 44.1036 58.254 44.3742 57.722C44.6449 57.1807 45.0229 56.7607 45.5082 56.462C46.0029 56.1633 46.5629 56.014 47.1882 56.014C48.0936 56.014 48.8029 56.3127 49.3162 56.91C49.8296 57.498 50.0862 58.31 50.0862 59.346V59.766ZM47.2022 56.896C46.6049 56.896 46.1242 57.0827 45.7602 57.456C45.4056 57.8293 45.1956 58.3567 45.1302 59.038H49.0922C49.0736 58.3473 48.9009 57.82 48.5742 57.456C48.2476 57.0827 47.7902 56.896 47.2022 56.896ZM55.187 56.014C55.7844 56.014 56.3117 56.1587 56.769 56.448C57.2264 56.7373 57.581 57.148 57.833 57.68C58.085 58.212 58.211 58.828 58.211 59.528C58.211 60.2373 58.085 60.8627 57.833 61.404C57.581 61.936 57.2264 62.3513 56.769 62.65C56.3117 62.9487 55.7844 63.098 55.187 63.098C54.655 63.098 54.1884 62.9813 53.787 62.748C53.395 62.5147 53.0964 62.1833 52.891 61.754V63H51.757V53.13H52.891V57.358C53.0964 56.9287 53.395 56.5973 53.787 56.364C54.1884 56.1307 54.655 56.014 55.187 56.014ZM54.963 62.16C55.6257 62.16 56.139 61.9313 56.503 61.474C56.867 61.0073 57.049 60.3587 57.049 59.528C57.049 58.716 56.867 58.086 56.503 57.638C56.139 57.19 55.6257 56.966 54.963 56.966C54.3004 56.966 53.787 57.19 53.423 57.638C53.0684 58.086 52.891 58.7253 52.891 59.556C52.891 60.3867 53.0684 61.0307 53.423 61.488C53.787 61.936 54.3004 62.16 54.963 62.16ZM62.7335 63.098C62.0895 63.098 61.5201 62.9533 61.0255 62.664C60.5401 62.3747 60.1621 61.964 59.8915 61.432C59.6301 60.8907 59.4995 60.2653 59.4995 59.556C59.4995 58.8467 59.6301 58.226 59.8915 57.694C60.1621 57.1527 60.5401 56.7373 61.0255 56.448C61.5201 56.1587 62.0895 56.014 62.7335 56.014C63.3775 56.014 63.9468 56.1587 64.4415 56.448C64.9361 56.7373 65.3141 57.1527 65.5755 57.694C65.8461 58.226 65.9815 58.8467 65.9815 59.556C65.9815 60.2653 65.8461 60.8907 65.5755 61.432C65.3141 61.964 64.9361 62.3747 64.4415 62.664C63.9468 62.9533 63.3775 63.098 62.7335 63.098ZM62.7335 62.16C63.4055 62.16 63.9188 61.9407 64.2735 61.502C64.6375 61.054 64.8195 60.4053 64.8195 59.556C64.8195 58.7253 64.6375 58.086 64.2735 57.638C63.9095 57.1807 63.3961 56.952 62.7335 56.952C62.0708 56.952 61.5575 57.1807 61.1935 57.638C60.8295 58.086 60.6475 58.7253 60.6475 59.556C60.6475 60.396 60.8248 61.04 61.1795 61.488C61.5435 61.936 62.0615 62.16 62.7335 62.16ZM70.4991 63.098C69.8551 63.098 69.2858 62.9533 68.7911 62.664C68.3058 62.3747 67.9278 61.964 67.6571 61.432C67.3958 60.8907 67.2651 60.2653 67.2651 59.556C67.2651 58.8467 67.3958 58.226 67.6571 57.694C67.9278 57.1527 68.3058 56.7373 68.7911 56.448C69.2858 56.1587 69.8551 56.014 70.4991 56.014C71.1431 56.014 71.7124 56.1587 72.2071 56.448C72.7018 56.7373 73.0798 57.1527 73.3411 57.694C73.6118 58.226 73.7471 58.8467 73.7471 59.556C73.7471 60.2653 73.6118 60.8907 73.3411 61.432C73.0798 61.964 72.7018 62.3747 72.2071 62.664C71.7124 62.9533 71.1431 63.098 70.4991 63.098ZM70.4991 62.16C71.1711 62.16 71.6844 61.9407 72.0391 61.502C72.4031 61.054 72.5851 60.4053 72.5851 59.556C72.5851 58.7253 72.4031 58.086 72.0391 57.638C71.6751 57.1807 71.1618 56.952 70.4991 56.952C69.8364 56.952 69.3231 57.1807 68.9591 57.638C68.5951 58.086 68.4131 58.7253 68.4131 59.556C68.4131 60.396 68.5904 61.04 68.9451 61.488C69.3091 61.936 69.8271 62.16 70.4991 62.16ZM81.5127 63H80.0427L76.5707 59.738V63H75.4367V53.13H76.5707V59.276L79.7487 56.196H81.1907L77.8027 59.458L81.5127 63Z" fill="black"/>
<path d="M71 20C71 8.9543 62.0457 0 51 0C39.9543 0 31 8.9543 31 20C31 29.9824 38.3137 38.2566 47.875 39.757V25.7813H42.7969V20H47.875V15.5938C47.875 10.5813 50.8609 7.8125 55.4293 7.8125C57.6176 7.8125 59.9062 8.20313 59.9062 8.20313V13.125H57.3844C54.9 13.125 54.125 14.6668 54.125 16.2484V20H59.6719L58.7852 25.7813H54.125V39.757C63.6863 38.2566 71 29.9824 71 20Z" fill="#1877F2"/>
<path d="M58.7852 25.7812L59.6719 20H54.125V16.2484C54.125 14.6668 54.9 13.125 57.3844 13.125H59.9062V8.20312C59.9062 8.20312 57.6176 7.8125 55.4293 7.8125C50.8609 7.8125 47.875 10.5813 47.875 15.5938V20H42.7969V25.7812H47.875V39.757C48.8934 39.9168 49.9367 40 51 40C52.0633 40 53.1066 39.9168 54.125 39.757V25.7812H58.7852Z" fill="white"/>
</svg>
