<svg width="103" height="68" viewBox="0 0 103 68" fill="none" xmlns="http://www.w3.org/2000/svg">
<path d="M38.279 57.862V62.426C37.887 62.6313 37.3737 62.7993 36.739 62.93C36.1137 63.0513 35.479 63.112 34.835 63.112C33.855 63.112 33.0104 62.9113 32.301 62.51C31.5917 62.1087 31.0457 61.53 30.663 60.774C30.2897 60.018 30.103 59.1127 30.103 58.058C30.103 57.0127 30.2897 56.112 30.663 55.356C31.0364 54.6 31.573 54.0213 32.273 53.62C32.973 53.2187 33.799 53.018 34.751 53.018C35.4417 53.018 36.0764 53.1253 36.655 53.34C37.2337 53.5453 37.7284 53.8533 38.139 54.264L37.705 55.146C37.229 54.7353 36.7577 54.4413 36.291 54.264C35.8337 54.0867 35.3204 53.998 34.751 53.998C33.6404 53.998 32.7864 54.348 32.189 55.048C31.5917 55.748 31.293 56.7513 31.293 58.058C31.293 59.3927 31.5964 60.41 32.203 61.11C32.8097 61.8007 33.6964 62.146 34.863 62.146C35.7124 62.146 36.501 62.02 37.229 61.768V58.758H34.779V57.862H38.279ZM43.2579 63.098C42.6139 63.098 42.0445 62.9533 41.5499 62.664C41.0645 62.3747 40.6865 61.964 40.4159 61.432C40.1545 60.8907 40.0239 60.2653 40.0239 59.556C40.0239 58.8467 40.1545 58.226 40.4159 57.694C40.6865 57.1527 41.0645 56.7373 41.5499 56.448C42.0445 56.1587 42.6139 56.014 43.2579 56.014C43.9019 56.014 44.4712 56.1587 44.9659 56.448C45.4605 56.7373 45.8385 57.1527 46.0999 57.694C46.3705 58.226 46.5059 58.8467 46.5059 59.556C46.5059 60.2653 46.3705 60.8907 46.0999 61.432C45.8385 61.964 45.4605 62.3747 44.9659 62.664C44.4712 62.9533 43.9019 63.098 43.2579 63.098ZM43.2579 62.16C43.9299 62.16 44.4432 61.9407 44.7979 61.502C45.1619 61.054 45.3439 60.4053 45.3439 59.556C45.3439 58.7253 45.1619 58.086 44.7979 57.638C44.4339 57.1807 43.9205 56.952 43.2579 56.952C42.5952 56.952 42.0819 57.1807 41.7179 57.638C41.3539 58.086 41.1719 58.7253 41.1719 59.556C41.1719 60.396 41.3492 61.04 41.7039 61.488C42.0679 61.936 42.5859 62.16 43.2579 62.16ZM51.0235 63.098C50.3795 63.098 49.8102 62.9533 49.3155 62.664C48.8302 62.3747 48.4522 61.964 48.1815 61.432C47.9202 60.8907 47.7895 60.2653 47.7895 59.556C47.7895 58.8467 47.9202 58.226 48.1815 57.694C48.4522 57.1527 48.8302 56.7373 49.3155 56.448C49.8102 56.1587 50.3795 56.014 51.0235 56.014C51.6675 56.014 52.2368 56.1587 52.7315 56.448C53.2262 56.7373 53.6042 57.1527 53.8655 57.694C54.1362 58.226 54.2715 58.8467 54.2715 59.556C54.2715 60.2653 54.1362 60.8907 53.8655 61.432C53.6042 61.964 53.2262 62.3747 52.7315 62.664C52.2368 62.9533 51.6675 63.098 51.0235 63.098ZM51.0235 62.16C51.6955 62.16 52.2088 61.9407 52.5635 61.502C52.9275 61.054 53.1095 60.4053 53.1095 59.556C53.1095 58.7253 52.9275 58.086 52.5635 57.638C52.1995 57.1807 51.6862 56.952 51.0235 56.952C50.3608 56.952 49.8475 57.1807 49.4835 57.638C49.1195 58.086 48.9375 58.7253 48.9375 59.556C48.9375 60.396 49.1148 61.04 49.4695 61.488C49.8335 61.936 50.3515 62.16 51.0235 62.16ZM62.0651 56.182V62.538C62.0651 63.5553 61.8038 64.3207 61.2811 64.834C60.7585 65.3567 59.9838 65.618 58.9571 65.618C57.7625 65.618 56.7591 65.31 55.9471 64.694L56.3251 63.854C56.7825 64.1527 57.2118 64.3673 57.6131 64.498C58.0145 64.6287 58.4625 64.694 58.9571 64.694C59.6105 64.694 60.1051 64.5167 60.4411 64.162C60.7771 63.8167 60.9451 63.308 60.9451 62.636V61.432C60.7491 61.8707 60.4458 62.2067 60.0351 62.44C59.6338 62.6733 59.1578 62.79 58.6071 62.79C58.0098 62.79 57.4778 62.65 57.0111 62.37C56.5538 62.09 56.1945 61.6933 55.9331 61.18C55.6811 60.6667 55.5551 60.074 55.5551 59.402C55.5551 58.73 55.6811 58.1373 55.9331 57.624C56.1945 57.1107 56.5538 56.714 57.0111 56.434C57.4778 56.154 58.0098 56.014 58.6071 56.014C59.1485 56.014 59.6198 56.1307 60.0211 56.364C60.4225 56.5973 60.7258 56.9287 60.9311 57.358V56.182H62.0651ZM58.8311 61.852C59.4845 61.852 59.9978 61.6373 60.3711 61.208C60.7445 60.7693 60.9311 60.1673 60.9311 59.402C60.9311 58.646 60.7445 58.0533 60.3711 57.624C60.0071 57.1853 59.4938 56.966 58.8311 56.966C58.1685 56.966 57.6458 57.1853 57.2631 57.624C56.8898 58.0533 56.7031 58.646 56.7031 59.402C56.7031 60.1673 56.8898 60.7693 57.2631 61.208C57.6458 61.6373 58.1685 61.852 58.8311 61.852ZM64.1643 63V53.13H65.2983V63H64.1643ZM73.1302 59.766H68.1462C68.1835 60.5593 68.3982 61.1613 68.7902 61.572C69.1822 61.9733 69.7375 62.174 70.4562 62.174C71.2495 62.174 71.9775 61.9033 72.6402 61.362L73.0182 62.188C72.7195 62.468 72.3368 62.692 71.8702 62.86C71.4035 63.0187 70.9275 63.098 70.4422 63.098C69.3782 63.098 68.5382 62.7853 67.9222 62.16C67.3155 61.5347 67.0122 60.6713 67.0122 59.57C67.0122 58.87 67.1475 58.254 67.4182 57.722C67.6888 57.1807 68.0668 56.7607 68.5522 56.462C69.0468 56.1633 69.6068 56.014 70.2322 56.014C71.1375 56.014 71.8468 56.3127 72.3602 56.91C72.8735 57.498 73.1302 58.31 73.1302 59.346V59.766ZM70.2462 56.896C69.6488 56.896 69.1682 57.0827 68.8042 57.456C68.4495 57.8293 68.2395 58.3567 68.1742 59.038H72.1362C72.1175 58.3473 71.9448 57.82 71.6182 57.456C71.2915 57.0827 70.8342 56.896 70.2462 56.896Z" fill="black"/>
<path d="M71 20.4448C71 18.8004 70.8639 17.6004 70.5692 16.356H51.4082V23.7781H62.6553C62.4286 25.6226 61.2041 28.4004 58.483 30.2669L58.4448 30.5154L64.5032 35.1149L64.9229 35.156C68.7777 31.667 71 26.5337 71 20.4448Z" fill="#4285F4"/>
<path d="M51.4081 40.0005C56.9182 40.0005 61.544 38.2226 64.9228 35.1561L58.4829 30.267C56.7596 31.4448 54.4466 32.267 51.4081 32.267C46.0113 32.267 41.4308 28.7783 39.798 23.9561L39.5587 23.976L33.2591 28.7538L33.1768 28.9782C36.5327 35.5115 43.4262 40.0005 51.4081 40.0005Z" fill="#34A853"/>
<path d="M39.7981 23.955C39.3673 22.7106 39.1179 21.3772 39.1179 19.9995C39.1179 18.6216 39.3673 17.2883 39.7754 16.0439L39.764 15.7789L33.3855 10.9243L33.1768 11.0216C31.7937 13.7327 31 16.7772 31 19.9995C31 23.2217 31.7937 26.266 33.1768 28.9772L39.7981 23.955Z" fill="#FBBC05"/>
<path d="M51.4081 7.73328C55.2402 7.73328 57.8252 9.3555 59.2992 10.7111L65.0588 5.2C61.5215 1.97779 56.9182 0 51.4081 0C43.4262 0 36.5327 4.48885 33.1768 11.0221L39.7754 16.0444C41.4308 11.2222 46.0113 7.73328 51.4081 7.73328Z" fill="#EB4335"/>
</svg>
