<svg width="103" height="68" viewBox="0 0 103 68" fill="none" xmlns="http://www.w3.org/2000/svg">
<path d="M33.4075 53.13H34.5415V63H33.4075V58.478H27.4995V63H26.3655V53.13H27.4995V57.498H33.4075V53.13ZM39.6348 63.098C38.9908 63.098 38.4215 62.9533 37.9268 62.664C37.4415 62.3747 37.0635 61.964 36.7928 61.432C36.5315 60.8907 36.4008 60.2653 36.4008 59.556C36.4008 58.8467 36.5315 58.226 36.7928 57.694C37.0635 57.1527 37.4415 56.7373 37.9268 56.448C38.4215 56.1587 38.9908 56.014 39.6348 56.014C40.2788 56.014 40.8482 56.1587 41.3428 56.448C41.8375 56.7373 42.2155 57.1527 42.4768 57.694C42.7475 58.226 42.8828 58.8467 42.8828 59.556C42.8828 60.2653 42.7475 60.8907 42.4768 61.432C42.2155 61.964 41.8375 62.3747 41.3428 62.664C40.8482 62.9533 40.2788 63.098 39.6348 63.098ZM39.6348 62.16C40.3068 62.16 40.8202 61.9407 41.1748 61.502C41.5388 61.054 41.7208 60.4053 41.7208 59.556C41.7208 58.7253 41.5388 58.086 41.1748 57.638C40.8108 57.1807 40.2975 56.952 39.6348 56.952C38.9722 56.952 38.4588 57.1807 38.0948 57.638C37.7308 58.086 37.5488 58.7253 37.5488 59.556C37.5488 60.396 37.7262 61.04 38.0808 61.488C38.4448 61.936 38.9628 62.16 39.6348 62.16ZM47.5548 62.188C47.7601 62.188 47.9655 62.174 48.1708 62.146L48.1148 63.042C47.9001 63.0793 47.6668 63.098 47.4148 63.098C46.5935 63.098 45.9728 62.8833 45.5528 62.454C45.1421 62.0247 44.9368 61.4273 44.9368 60.662V57.078H43.6068V56.182H44.9368V54.11H46.0708V56.182H48.0028V57.078H46.0708V60.578C46.0708 61.6513 46.5655 62.188 47.5548 62.188ZM56.9046 56.014C58.4166 56.014 59.1726 56.9147 59.1726 58.716V63H58.0386V58.772C58.0386 58.1467 57.9266 57.6893 57.7026 57.4C57.4879 57.1107 57.1379 56.966 56.6526 56.966C56.0833 56.966 55.6353 57.1573 55.3086 57.54C54.9819 57.9227 54.8186 58.4453 54.8186 59.108V63H53.6846V58.772C53.6846 58.1373 53.5726 57.68 53.3486 57.4C53.1246 57.1107 52.7699 56.966 52.2846 56.966C51.7153 56.966 51.2673 57.1573 50.9406 57.54C50.6139 57.9227 50.4506 58.4453 50.4506 59.108V63H49.3166V56.182H50.4366V57.26C50.6419 56.8587 50.9266 56.5507 51.2906 56.336C51.6546 56.1213 52.0746 56.014 52.5506 56.014C53.6053 56.014 54.3006 56.462 54.6366 57.358C54.8326 56.938 55.1313 56.6113 55.5326 56.378C55.9339 56.1353 56.3913 56.014 56.9046 56.014ZM64.0105 56.014C64.8785 56.014 65.5225 56.238 65.9425 56.686C66.3718 57.1247 66.5865 57.7967 66.5865 58.702V63H65.4805V61.838C65.3031 62.2393 65.0325 62.552 64.6685 62.776C64.3045 62.9907 63.8845 63.098 63.4085 63.098C62.9698 63.098 62.5638 63.0093 62.1905 62.832C61.8265 62.6547 61.5371 62.4073 61.3225 62.09C61.1078 61.7727 61.0005 61.4227 61.0005 61.04C61.0005 60.5267 61.1311 60.13 61.3925 59.85C61.6538 59.5607 62.0831 59.3553 62.6805 59.234C63.2778 59.1033 64.1085 59.038 65.1725 59.038H65.4805V58.576C65.4805 58.0067 65.3638 57.596 65.1305 57.344C64.8971 57.0827 64.5191 56.952 63.9965 56.952C63.2125 56.952 62.4331 57.1947 61.6585 57.68L61.2805 56.854C61.6351 56.602 62.0598 56.4013 62.5545 56.252C63.0585 56.0933 63.5438 56.014 64.0105 56.014ZM63.5625 62.202C64.1225 62.202 64.5798 62.0153 64.9345 61.642C65.2985 61.2593 65.4805 60.7693 65.4805 60.172V59.766H65.2285C64.4071 59.766 63.7818 59.8033 63.3525 59.878C62.9231 59.9433 62.6151 60.06 62.4285 60.228C62.2511 60.3867 62.1625 60.6247 62.1625 60.942C62.1625 61.306 62.2931 61.6093 62.5545 61.852C62.8251 62.0853 63.1611 62.202 63.5625 62.202ZM72.5263 56.994L71.7843 57.064C71.0843 57.1293 70.5756 57.3487 70.2583 57.722C69.9503 58.0953 69.7963 58.5573 69.7963 59.108V63H68.6623V56.182H69.7683V57.372C70.151 56.5787 70.9023 56.1353 72.0223 56.042L72.4283 56.014L72.5263 56.994ZM77.1407 62.188C77.3461 62.188 77.5514 62.174 77.7567 62.146L77.7007 63.042C77.4861 63.0793 77.2527 63.098 77.0007 63.098C76.1794 63.098 75.5587 62.8833 75.1387 62.454C74.7281 62.0247 74.5227 61.4273 74.5227 60.662V57.078H73.1927V56.182H74.5227V54.11H75.6567V56.182H77.5887V57.078H75.6567V60.578C75.6567 61.6513 76.1514 62.188 77.1407 62.188Z" fill="black"/>
<g clip-path="url(#clip0_1570_3178)">
<path d="M66.1468 25.5132C66.3424 21.9484 65.1035 16.1149 62.1041 11.3186C62.0389 11.189 61.8759 11.2538 61.9085 11.3834C62.1041 12.0964 62.1693 13.4251 60.9956 13.3603C58.9417 13.2306 61.0608 8.82319 56.5291 5.80926C56.4313 5.74444 56.3335 5.84167 56.3661 5.93889C56.6922 6.52223 56.8552 8.36948 56.1379 8.98523C55.5511 9.47134 54.5078 9.34171 53.4972 7.68891C51.8018 4.93425 52.4539 2.01754 53.595 0.170298C53.6928 0.0406664 53.5624 -0.0241492 53.4645 0.00825861C47.2375 2.04995 45.9987 9.34171 44.662 11.9992C44.4338 12.4529 44.2382 12.6797 43.8795 12.6473C42.7385 12.5825 43.5535 10.1519 43.9447 9.34171C44.0099 9.21208 43.8795 9.14727 43.7817 9.24449C40.5867 12.5501 37.6851 18.2215 37.1309 23.4715C37.1635 23.3419 37.0657 23.8928 37.0331 24.3141C37.0331 24.4762 37.0005 24.6382 37.0005 24.8002V25.3836C36.9353 33.3883 43.3905 39.9023 51.4432 39.9995C59.4959 40.0643 66.049 33.6476 66.1468 25.6428V25.5132ZM51.5084 32.2216C47.7918 32.1892 44.7924 29.1753 44.825 25.4484C44.8576 21.7215 47.8896 18.7724 51.6388 18.8048C55.3881 18.8372 58.3549 21.8511 58.3223 25.578C58.2897 29.3049 55.2577 32.254 51.5084 32.2216Z" fill="#F04E23"/>
</g>
<defs>
<clipPath id="clip0_1570_3178">
<rect width="40" height="40" fill="white" transform="translate(32)"/>
</clipPath>
</defs>
</svg>
