<svg width="103" height="68" viewBox="0 0 103 68" fill="none" xmlns="http://www.w3.org/2000/svg">
<path d="M26.3586 63V53.13H27.5066V62.02H32.4486V63H26.3586ZM33.7512 63V56.182H34.8852V63H33.7512ZM33.6392 53.228H35.0112V54.502H33.6392V53.228ZM40.4351 56.014C42.0684 56.014 42.8851 56.9147 42.8851 58.716V63H41.7511V58.786C41.7511 58.1513 41.6251 57.6893 41.3731 57.4C41.1304 57.1107 40.7384 56.966 40.1971 56.966C39.5717 56.966 39.0724 57.1573 38.6991 57.54C38.3257 57.9227 38.1391 58.4407 38.1391 59.094V63H37.0051V56.182H38.1251V57.302C38.3491 56.882 38.6617 56.5647 39.0631 56.35C39.4644 56.126 39.9217 56.014 40.4351 56.014ZM51.0381 63H49.5681L46.0961 59.738V63H44.9621V53.13H46.0961V59.276L49.2741 56.196H50.7161L47.3281 59.458L51.0381 63ZM57.5511 59.766H52.5671C52.6044 60.5593 52.8191 61.1613 53.2111 61.572C53.6031 61.9733 54.1584 62.174 54.8771 62.174C55.6704 62.174 56.3984 61.9033 57.0611 61.362L57.4391 62.188C57.1404 62.468 56.7577 62.692 56.2911 62.86C55.8244 63.0187 55.3484 63.098 54.8631 63.098C53.7991 63.098 52.9591 62.7853 52.3431 62.16C51.7364 61.5347 51.4331 60.6713 51.4331 59.57C51.4331 58.87 51.5684 58.254 51.8391 57.722C52.1097 57.1807 52.4877 56.7607 52.9731 56.462C53.4677 56.1633 54.0277 56.014 54.6531 56.014C55.5584 56.014 56.2677 56.3127 56.7811 56.91C57.2944 57.498 57.5511 58.31 57.5511 59.346V59.766ZM54.6671 56.896C54.0697 56.896 53.5891 57.0827 53.2251 57.456C52.8704 57.8293 52.6604 58.3567 52.5951 59.038H56.5571C56.5384 58.3473 56.3657 57.82 56.0391 57.456C55.7124 57.0827 55.2551 56.896 54.6671 56.896ZM65.2699 53.13V63H64.1359V61.754C63.9305 62.1833 63.6272 62.5147 63.2259 62.748C62.8339 62.9813 62.3719 63.098 61.8399 63.098C61.2425 63.098 60.7152 62.9487 60.2579 62.65C59.8005 62.3513 59.4459 61.936 59.1939 61.404C58.9419 60.8627 58.8159 60.2373 58.8159 59.528C58.8159 58.828 58.9419 58.212 59.1939 57.68C59.4459 57.148 59.8005 56.7373 60.2579 56.448C60.7152 56.1587 61.2425 56.014 61.8399 56.014C62.3719 56.014 62.8339 56.1307 63.2259 56.364C63.6272 56.5973 63.9305 56.9287 64.1359 57.358V53.13H65.2699ZM62.0639 62.16C62.7265 62.16 63.2352 61.936 63.5899 61.488C63.9539 61.0307 64.1359 60.3867 64.1359 59.556C64.1359 58.7253 63.9539 58.086 63.5899 57.638C63.2352 57.19 62.7265 56.966 62.0639 56.966C61.4012 56.966 60.8832 57.19 60.5099 57.638C60.1459 58.086 59.9639 58.716 59.9639 59.528C59.9639 60.3587 60.1459 61.0073 60.5099 61.474C60.8832 61.9313 61.4012 62.16 62.0639 62.16ZM67.5383 63V53.13H68.6863V63H67.5383ZM74.3823 56.014C76.0157 56.014 76.8323 56.9147 76.8323 58.716V63H75.6983V58.786C75.6983 58.1513 75.5723 57.6893 75.3203 57.4C75.0777 57.1107 74.6857 56.966 74.1443 56.966C73.519 56.966 73.0197 57.1573 72.6463 57.54C72.273 57.9227 72.0863 58.4407 72.0863 59.094V63H70.9523V56.182H72.0723V57.302C72.2963 56.882 72.609 56.5647 73.0103 56.35C73.4117 56.126 73.869 56.014 74.3823 56.014Z" fill="black"/>
<g clip-path="url(#clip0_1570_3159)">
<path d="M72 2.91667V37.0833C72 37.8569 71.6927 38.5987 71.1457 39.1457C70.5987 39.6927 69.8569 40 69.0833 40H34.9167C34.1431 40 33.4013 39.6927 32.8543 39.1457C32.3073 38.5987 32 37.8569 32 37.0833V2.91667C32 2.14312 32.3073 1.40125 32.8543 0.854272C33.4013 0.307291 34.1431 0 34.9167 0L69.0833 0C69.8569 0 70.5987 0.307291 71.1457 0.854272C71.6927 1.40125 72 2.14312 72 2.91667ZM43.6667 15H37.8333V34.1667H43.6667V15ZM44.1667 8.75C44.1749 8.07432 43.9825 7.41138 43.6139 6.84502C43.2454 6.27865 42.7171 5.83429 42.096 5.56813C41.4749 5.30197 40.7888 5.22596 40.1245 5.34971C39.4602 5.47346 38.8476 5.79141 38.3639 6.26336C37.8803 6.73531 37.5475 7.34007 37.4076 8.00116C37.2677 8.66224 37.327 9.34997 37.5779 9.97738C37.8288 10.6048 38.2602 11.1437 38.8174 11.526C39.3746 11.9082 40.0326 12.1167 40.7083 12.125H40.75C41.1878 12.1361 41.6234 12.0608 42.0321 11.9034C42.4408 11.7461 42.8144 11.5097 43.1317 11.2079C43.449 10.9061 43.7037 10.5447 43.8813 10.1444C44.0589 9.74414 44.1559 9.31278 44.1667 8.875V8.75ZM66.1667 22.6833C66.1667 16.85 62.3083 14.5833 58.9583 14.5833C55.6083 14.5833 53.125 16.5333 52.575 17.7083H52.5V15H47V34.1667H52.8333V24.1667C52.8333 21.0917 54.925 19.725 56.9583 19.725C58.625 19.725 60.3333 21.0083 60.3333 24.0917V34.1667H66.1667V22.6833Z" fill="#0A66C2"/>
</g>
<defs>
<clipPath id="clip0_1570_3159">
<rect width="40" height="40" fill="white" transform="translate(32)"/>
</clipPath>
</defs>
</svg>
