<svg width="103" height="68" viewBox="0 0 103 68" fill="none" xmlns="http://www.w3.org/2000/svg">
<path d="M18.1487 53.13H22.0547C23.0907 53.13 23.8933 53.382 24.4627 53.886C25.0413 54.39 25.3307 55.104 25.3307 56.028C25.3307 56.952 25.0413 57.6707 24.4627 58.184C23.884 58.6973 23.0813 58.954 22.0547 58.954H19.2967V63H18.1487V53.13ZM21.9427 58.002C23.4453 58.002 24.1967 57.344 24.1967 56.028C24.1967 54.7307 23.4453 54.082 21.9427 54.082H19.2967V58.002H21.9427ZM29.6257 56.014C30.4937 56.014 31.1377 56.238 31.5577 56.686C31.987 57.1247 32.2017 57.7967 32.2017 58.702V63H31.0957V61.838C30.9184 62.2393 30.6477 62.552 30.2837 62.776C29.9197 62.9907 29.4997 63.098 29.0237 63.098C28.585 63.098 28.179 63.0093 27.8057 62.832C27.4417 62.6547 27.1524 62.4073 26.9377 62.09C26.723 61.7727 26.6157 61.4227 26.6157 61.04C26.6157 60.5267 26.7464 60.13 27.0077 59.85C27.269 59.5607 27.6984 59.3553 28.2957 59.234C28.893 59.1033 29.7237 59.038 30.7877 59.038H31.0957V58.576C31.0957 58.0067 30.979 57.596 30.7457 57.344C30.5124 57.0827 30.1344 56.952 29.6117 56.952C28.8277 56.952 28.0484 57.1947 27.2737 57.68L26.8957 56.854C27.2504 56.602 27.675 56.4013 28.1697 56.252C28.6737 56.0933 29.159 56.014 29.6257 56.014ZM29.1777 62.202C29.7377 62.202 30.195 62.0153 30.5497 61.642C30.9137 61.2593 31.0957 60.7693 31.0957 60.172V59.766H30.8437C30.0224 59.766 29.397 59.8033 28.9677 59.878C28.5384 59.9433 28.2304 60.06 28.0437 60.228C27.8664 60.3867 27.7777 60.6247 27.7777 60.942C27.7777 61.306 27.9084 61.6093 28.1697 61.852C28.4404 62.0853 28.7764 62.202 29.1777 62.202ZM40.3815 56.182V62.538C40.3815 63.5553 40.1202 64.3207 39.5975 64.834C39.0749 65.3567 38.3002 65.618 37.2735 65.618C36.0789 65.618 35.0755 65.31 34.2635 64.694L34.6415 63.854C35.0989 64.1527 35.5282 64.3673 35.9295 64.498C36.3309 64.6287 36.7789 64.694 37.2735 64.694C37.9269 64.694 38.4215 64.5167 38.7575 64.162C39.0935 63.8167 39.2615 63.308 39.2615 62.636V61.432C39.0655 61.8707 38.7622 62.2067 38.3515 62.44C37.9502 62.6733 37.4742 62.79 36.9235 62.79C36.3262 62.79 35.7942 62.65 35.3275 62.37C34.8702 62.09 34.5109 61.6933 34.2495 61.18C33.9975 60.6667 33.8715 60.074 33.8715 59.402C33.8715 58.73 33.9975 58.1373 34.2495 57.624C34.5109 57.1107 34.8702 56.714 35.3275 56.434C35.7942 56.154 36.3262 56.014 36.9235 56.014C37.4649 56.014 37.9362 56.1307 38.3375 56.364C38.7389 56.5973 39.0422 56.9287 39.2475 57.358V56.182H40.3815ZM37.1475 61.852C37.8009 61.852 38.3142 61.6373 38.6875 61.208C39.0609 60.7693 39.2475 60.1673 39.2475 59.402C39.2475 58.646 39.0609 58.0533 38.6875 57.624C38.3235 57.1853 37.8102 56.966 37.1475 56.966C36.4849 56.966 35.9622 57.1853 35.5795 57.624C35.2062 58.0533 35.0195 58.646 35.0195 59.402C35.0195 60.1673 35.2062 60.7693 35.5795 61.208C35.9622 61.6373 36.4849 61.852 37.1475 61.852ZM45.7847 63.112C44.2447 63.112 43.0127 62.6967 42.0887 61.866L42.5367 60.984C43.022 61.3947 43.5167 61.6887 44.0207 61.866C44.534 62.0433 45.1267 62.132 45.7987 62.132C46.592 62.132 47.2033 61.978 47.6327 61.67C48.062 61.362 48.2767 60.928 48.2767 60.368C48.2767 60.0413 48.174 59.7753 47.9687 59.57C47.7633 59.3647 47.4927 59.2013 47.1567 59.08C46.8207 58.9587 46.368 58.8327 45.7987 58.702C45.0333 58.5247 44.4033 58.338 43.9087 58.142C43.4233 57.946 43.0267 57.666 42.7187 57.302C42.42 56.938 42.2707 56.462 42.2707 55.874C42.2707 55.314 42.4153 54.8193 42.7047 54.39C43.0033 53.9513 43.4233 53.6153 43.9647 53.382C44.5153 53.1393 45.15 53.018 45.8687 53.018C46.55 53.018 47.1847 53.1253 47.7727 53.34C48.37 53.5547 48.874 53.8627 49.2847 54.264L48.8507 55.146C48.384 54.7447 47.908 54.4553 47.4227 54.278C46.9467 54.0913 46.4287 53.998 45.8687 53.998C45.1033 53.998 44.5013 54.1613 44.0627 54.488C43.6333 54.8053 43.4187 55.2533 43.4187 55.832C43.4187 56.3267 43.61 56.7 43.9927 56.952C44.3753 57.204 44.954 57.4187 45.7287 57.596C46.578 57.8013 47.2453 57.9927 47.7307 58.17C48.216 58.338 48.6173 58.5947 48.9347 58.94C49.2613 59.2853 49.4247 59.7473 49.4247 60.326C49.4247 60.886 49.2753 61.376 48.9767 61.796C48.6873 62.216 48.2673 62.5427 47.7167 62.776C47.166 63 46.522 63.112 45.7847 63.112ZM56.8333 59.766H51.8493C51.8866 60.5593 52.1013 61.1613 52.4933 61.572C52.8853 61.9733 53.4406 62.174 54.1593 62.174C54.9526 62.174 55.6806 61.9033 56.3433 61.362L56.7213 62.188C56.4226 62.468 56.04 62.692 55.5733 62.86C55.1066 63.0187 54.6306 63.098 54.1453 63.098C53.0813 63.098 52.2413 62.7853 51.6253 62.16C51.0186 61.5347 50.7153 60.6713 50.7153 59.57C50.7153 58.87 50.8506 58.254 51.1213 57.722C51.392 57.1807 51.77 56.7607 52.2553 56.462C52.75 56.1633 53.31 56.014 53.9353 56.014C54.8406 56.014 55.55 56.3127 56.0633 56.91C56.5766 57.498 56.8333 58.31 56.8333 59.346V59.766ZM53.9493 56.896C53.352 56.896 52.8713 57.0827 52.5073 57.456C52.1526 57.8293 51.9426 58.3567 51.8773 59.038H55.8393C55.8206 58.3473 55.648 57.82 55.3213 57.456C54.9946 57.0827 54.5373 56.896 53.9493 56.896ZM64.6081 56.182V62.538C64.6081 63.5553 64.3468 64.3207 63.8241 64.834C63.3014 65.3567 62.5268 65.618 61.5001 65.618C60.3054 65.618 59.3021 65.31 58.4901 64.694L58.8681 63.854C59.3254 64.1527 59.7548 64.3673 60.1561 64.498C60.5574 64.6287 61.0054 64.694 61.5001 64.694C62.1534 64.694 62.6481 64.5167 62.9841 64.162C63.3201 63.8167 63.4881 63.308 63.4881 62.636V61.432C63.2921 61.8707 62.9888 62.2067 62.5781 62.44C62.1768 62.6733 61.7008 62.79 61.1501 62.79C60.5528 62.79 60.0208 62.65 59.5541 62.37C59.0968 62.09 58.7374 61.6933 58.4761 61.18C58.2241 60.6667 58.0981 60.074 58.0981 59.402C58.0981 58.73 58.2241 58.1373 58.4761 57.624C58.7374 57.1107 59.0968 56.714 59.5541 56.434C60.0208 56.154 60.5528 56.014 61.1501 56.014C61.6914 56.014 62.1628 56.1307 62.5641 56.364C62.9654 56.5973 63.2688 56.9287 63.4741 57.358V56.182H64.6081ZM61.3741 61.852C62.0274 61.852 62.5408 61.6373 62.9141 61.208C63.2874 60.7693 63.4741 60.1673 63.4741 59.402C63.4741 58.646 63.2874 58.0533 62.9141 57.624C62.5501 57.1853 62.0368 56.966 61.3741 56.966C60.7114 56.966 60.1888 57.1853 59.8061 57.624C59.4328 58.0533 59.2461 58.646 59.2461 59.402C59.2461 60.1673 59.4328 60.7693 59.8061 61.208C60.1888 61.6373 60.7114 61.852 61.3741 61.852ZM72.4472 56.182V63H71.3412V61.838C71.1266 62.2487 70.8232 62.5613 70.4312 62.776C70.0486 62.9907 69.6146 63.098 69.1292 63.098C68.3172 63.098 67.7059 62.874 67.2952 62.426C66.8846 61.9687 66.6792 61.2967 66.6792 60.41V56.182H67.8132V60.382C67.8132 60.9887 67.9346 61.4367 68.1772 61.726C68.4199 62.006 68.8026 62.146 69.3252 62.146C69.9226 62.146 70.4032 61.9547 70.7672 61.572C71.1312 61.18 71.3132 60.6667 71.3132 60.032V56.182H72.4472ZM78.4189 56.994L77.6769 57.064C76.9769 57.1293 76.4682 57.3487 76.1509 57.722C75.8429 58.0953 75.6889 58.5573 75.6889 59.108V63H74.5549V56.182H75.6609V57.372C76.0435 56.5787 76.7949 56.1353 77.9149 56.042L78.3209 56.014L78.4189 56.994ZM82.1817 63.098C81.5377 63.098 80.9684 62.9533 80.4737 62.664C79.9884 62.3747 79.6104 61.964 79.3397 61.432C79.0784 60.8907 78.9477 60.2653 78.9477 59.556C78.9477 58.8467 79.0784 58.226 79.3397 57.694C79.6104 57.1527 79.9884 56.7373 80.4737 56.448C80.9684 56.1587 81.5377 56.014 82.1817 56.014C82.8257 56.014 83.395 56.1587 83.8897 56.448C84.3844 56.7373 84.7624 57.1527 85.0237 57.694C85.2944 58.226 85.4297 58.8467 85.4297 59.556C85.4297 60.2653 85.2944 60.8907 85.0237 61.432C84.7624 61.964 84.3844 62.3747 83.8897 62.664C83.395 62.9533 82.8257 63.098 82.1817 63.098ZM82.1817 62.16C82.8537 62.16 83.367 61.9407 83.7217 61.502C84.0857 61.054 84.2677 60.4053 84.2677 59.556C84.2677 58.7253 84.0857 58.086 83.7217 57.638C83.3577 57.1807 82.8444 56.952 82.1817 56.952C81.519 56.952 81.0057 57.1807 80.6417 57.638C80.2777 58.086 80.0957 58.7253 80.0957 59.556C80.0957 60.396 80.273 61.04 80.6277 61.488C80.9917 61.936 81.5097 62.16 82.1817 62.16Z" fill="black"/>
<g clip-path="url(#clip0_1570_3182)">
<path fill-rule="evenodd" clip-rule="evenodd" d="M36.7359 7.08162C35.2526 8.81669 34.1356 10.7912 33.3162 12.9526C32.4578 15.1984 32 17.5057 32 19.9681C32 22.7565 32.5974 25.342 33.6252 27.7816C34.6484 30.2052 36.0469 32.2868 37.8873 34.1176C39.6773 35.9006 41.7763 37.3279 44.2026 38.3653C46.6289 39.4186 49.2635 40 51.9989 40C54.78 40 57.3734 39.4437 59.8432 38.3653C62.2054 37.3393 64.3365 35.9348 66.1585 34.1176C67.9622 32.3165 69.3539 30.1915 70.3542 27.7816C71.4049 25.3146 72 22.7565 72 19.9681C72 17.5057 71.5376 15.1984 70.6815 12.9526C69.8438 10.7934 68.7359 8.86001 67.2641 7.08162C65.79 5.342 64.0847 3.90105 62.1528 2.78842C59.1176 1.04423 55.9863 0 52.3582 0C52.182 0 52.0103 0 51.8386 0C48.2564 0 44.9763 1.02143 41.8907 2.78842C39.9382 3.89421 38.2146 5.34884 36.7359 7.08162Z" fill="#241F20"/>
<path fill-rule="evenodd" clip-rule="evenodd" d="M65.3619 7.24586C62.8852 4.24768 59.6783 2.31654 55.7229 1.57098C51.8363 0.843671 48.1579 1.42735 44.674 3.30833C42.884 4.31152 41.371 5.56095 40.151 7.03382C38.8966 8.54089 37.9375 10.276 37.3195 12.2208C36.6832 14.2135 36.5207 16.3065 36.7358 18.3471C37.2554 17.0338 38.052 15.8323 38.9996 14.6832C40.3639 13.0621 42.0577 11.8469 43.9461 10.9554C45.83 10.1118 47.8992 9.64212 50.0463 9.59424C52.2071 9.59424 54.3084 10.0138 56.2586 10.8596C58.3141 11.6873 60.1041 12.9504 61.6308 14.6376C62.2008 15.2053 62.6769 15.8847 63.1438 16.5664C63.826 16.5664 64.5126 16.6143 65.0963 16.7785C66.6277 17.2003 67.834 17.9777 68.7747 19.1451L68.8205 18.3995C68.9876 16.3567 68.7747 14.4278 68.2071 12.5331C67.6211 10.6476 66.6734 8.86465 65.3619 7.24586Z" fill="#FFAA00"/>
<path fill-rule="evenodd" clip-rule="evenodd" d="M36.31 26.1125C36.5687 27.6857 37.0448 29.1928 37.8368 30.5699C38.5738 31.9333 39.581 33.1804 40.8331 34.284L41.4671 34.8015C43.6325 36.2767 45.9398 37.33 48.4668 37.8498C50.0943 38.1554 51.7378 38.0596 53.3149 37.688C54.9904 37.33 56.5721 36.6506 58.0508 35.6451C56.682 35.3373 55.462 34.6054 54.5166 33.5065L54.1458 33.0847C52.159 33.2944 50.1607 33.2306 48.1578 32.8248C45.6171 32.2411 43.4219 31.1877 41.371 29.7286C39.4185 28.2534 37.7933 26.3724 36.5687 24.17L36.2597 23.5361C36.2116 24.3774 36.2116 25.2666 36.31 26.1125Z" fill="#FFAA00"/>
<path fill-rule="evenodd" clip-rule="evenodd" d="M55.0387 12.9024C53.2007 12.1089 51.1978 11.751 49.1492 11.751C47.1463 11.7989 45.2579 12.2207 43.5183 13.062C41.7764 13.8417 40.2656 14.9931 38.9975 16.4683C38.098 17.5718 37.3655 18.771 36.8962 20.0342C37.2533 21.6051 37.8347 23.0642 38.6862 24.5394C39.8902 26.5823 41.4673 28.3151 43.4198 29.6762C45.3083 31.0373 47.4736 31.9311 49.7809 32.4464C51.1955 32.7086 52.6788 32.8226 54.146 32.7542C53.5761 31.8171 53.2007 30.8276 53.0382 29.6762C52.8413 28.5111 52.894 27.3597 53.1023 26.1103C53.3632 24.5873 53.9332 23.176 54.7274 21.8627C55.5789 20.5494 56.6845 19.3502 57.9847 18.3926C58.8339 17.7792 59.7289 17.3096 60.6239 16.9334L60.15 16.3999C58.6714 14.8974 56.9935 13.6798 55.0387 12.9024Z" fill="#ED3921"/>
<path fill-rule="evenodd" clip-rule="evenodd" d="M69.0998 21.8647L68.6305 21.0713C67.9438 23.4379 66.6734 25.5309 65.0483 27.4256C64.6729 28.9965 64.0388 30.4078 63.2102 31.7211C62.361 33.0161 61.2531 34.1835 59.9873 35.173C60.8823 35.2209 61.7773 35.0772 62.6746 34.7512C63.5169 34.4434 64.2998 33.9737 65.0963 33.3399C66.1561 32.3526 67.1495 31.1853 67.9942 29.986L68.1384 29.7763C68.5138 28.9965 68.8892 28.2054 69.1455 27.4735C69.4088 26.68 69.5713 25.9026 69.6216 25.1753C69.6697 24.3773 69.6697 23.6955 69.5232 23.0161C69.4111 22.5966 69.2485 22.2227 69.0998 21.8647Z" fill="#FF8800"/>
<path fill-rule="evenodd" clip-rule="evenodd" d="M34.4699 12.6404C33.7877 14.5259 33.4146 16.5163 33.3185 18.6732C33.2704 21.4411 33.7877 24.1178 34.8498 26.6326C35.3671 27.8296 36.0058 28.9969 36.7817 30.1005C37.5348 31.1378 38.3634 32.1433 39.3042 33.0165C37.2578 30.7639 36.047 28.1533 35.6807 25.2213C35.58 24.2181 35.58 23.2765 35.6304 22.287C34.9483 20.3877 34.5729 18.509 34.5729 16.5642C34.5729 14.7334 34.8956 12.9504 35.4679 11.115C35.9554 9.85421 36.5734 8.65266 37.2578 7.55371C36.047 9.1269 35.1588 10.8118 34.4699 12.6404Z" fill="#F66418"/>
<path fill-rule="evenodd" clip-rule="evenodd" d="M70.4045 13.7458C69.9306 12.2227 69.3126 10.7453 68.516 9.38415C67.7355 8.07088 66.7718 6.86933 65.6228 5.77266C64.579 4.66687 63.359 3.72752 61.9924 2.93408C63.1438 3.72524 64.2013 4.66687 65.1489 5.7225C66.6299 7.39145 67.7378 9.17439 68.4199 11.1694C69.102 13.21 69.4133 15.3189 69.2508 17.5077C69.2027 18.1894 69.102 18.8187 68.9922 19.5004C69.2508 19.9199 69.5278 20.4398 69.7407 20.9733C70.258 22.4986 70.3564 24.1174 70.0954 25.7407C70.892 23.4904 71.2972 21.1192 71.2491 18.6728C71.1507 16.9879 70.892 15.3189 70.4045 13.7458Z" fill="#F66418"/>
<path fill-rule="evenodd" clip-rule="evenodd" d="M64.2014 18.7212C64.7233 19.8224 65.0506 21.024 65.1948 22.2232C65.3619 23.4385 65.4077 24.5899 65.3093 25.7413L65.0964 26.8926C66.6735 25.0618 67.7333 23.019 68.3536 20.6501C67.9943 20.2944 67.6189 19.9227 67.1931 19.6149C66.3508 19.029 65.3619 18.7212 64.2014 18.7212Z" fill="#F66418"/>
<path fill-rule="evenodd" clip-rule="evenodd" d="M61.0472 32.5489C61.6812 31.6552 62.2008 30.6704 62.5762 29.6787C60.4589 31.1879 58.1516 32.2411 55.6292 32.7563C55.9862 33.3399 56.4715 33.8118 56.9934 34.1834C57.5176 34.5391 58.1013 34.799 58.7834 35.011C59.6303 34.2815 60.4108 33.438 61.0472 32.5489Z" fill="#ED3921"/>
<path fill-rule="evenodd" clip-rule="evenodd" d="M50.4653 38.1548L52.7314 38.2666C54.6839 38.221 56.5174 37.8471 58.312 37.2635C59.9875 36.6958 61.6287 35.9025 63.0479 34.9131C62.1506 35.3348 61.2052 35.6426 60.2004 35.6905C59.8891 35.7543 59.5137 35.7543 59.1566 35.7543C56.5746 37.4276 53.6722 38.221 50.4653 38.1548Z" fill="#ED3921"/>
<path fill-rule="evenodd" clip-rule="evenodd" d="M62.9974 22.9685C62.6746 21.6074 62.2008 20.3466 61.5187 19.145C60.3124 19.503 59.2549 20.1345 58.2615 20.9758C57.2039 21.8673 56.3089 22.9708 55.6268 24.2203C55.0386 25.4811 54.6838 26.6826 54.5693 27.9435C54.4228 29.1427 54.5693 30.2485 54.8944 31.2996C55.0386 31.6553 55.1553 31.979 55.3682 32.2891C56.6866 32.1455 57.8883 31.7693 59.0946 31.2517C60.3604 30.7661 61.521 30.1026 62.6243 29.259L62.7227 29.1906C62.9356 28.4109 63.0981 27.6197 63.2125 26.8377C63.3064 25.5312 63.2583 24.2795 62.9974 22.9685Z" fill="#FFEC00"/>
</g>
<defs>
<clipPath id="clip0_1570_3182">
<rect width="40" height="40" fill="white" transform="translate(32)"/>
</clipPath>
</defs>
</svg>
