<svg width="103" height="68" viewBox="0 0 103 68" fill="none" xmlns="http://www.w3.org/2000/svg">
<path d="M9.2253 63H7.96531L6.2853 59.836C6.07997 59.4533 5.83731 59.192 5.55731 59.052C5.28664 58.9027 4.9133 58.828 4.4373 58.828H2.5893V63H1.4553V53.13H5.5153C6.58864 53.13 7.40531 53.368 7.96531 53.844C8.53464 54.32 8.81931 55.02 8.81931 55.944C8.81931 56.7093 8.59997 57.33 8.16131 57.806C7.73197 58.2727 7.11597 58.5667 6.3133 58.688C6.5653 58.7627 6.78464 58.8887 6.97131 59.066C7.16731 59.2433 7.34464 59.4813 7.50331 59.78L9.2253 63ZM5.4173 57.876C6.18264 57.876 6.75197 57.7173 7.1253 57.4C7.50797 57.0827 7.69931 56.602 7.69931 55.958C7.69931 55.3233 7.51264 54.852 7.13931 54.544C6.76597 54.236 6.19197 54.082 5.4173 54.082H2.5893V57.876H5.4173ZM11.053 53.13H14.371C15.9483 53.13 17.1663 53.5593 18.025 54.418C18.893 55.2673 19.327 56.4807 19.327 58.058C19.327 59.6353 18.893 60.8533 18.025 61.712C17.1663 62.5707 15.9483 63 14.371 63H11.053V53.13ZM14.301 62.02C16.8583 62.02 18.137 60.6993 18.137 58.058C18.137 55.426 16.8583 54.11 14.301 54.11H12.201V62.02H14.301ZM28.1479 63.112C26.6079 63.112 25.3759 62.6967 24.4519 61.866L24.8999 60.984C25.3853 61.3947 25.8799 61.6887 26.3839 61.866C26.8973 62.0433 27.4899 62.132 28.1619 62.132C28.9553 62.132 29.5666 61.978 29.9959 61.67C30.4253 61.362 30.6399 60.928 30.6399 60.368C30.6399 60.0413 30.5373 59.7753 30.3319 59.57C30.1266 59.3647 29.8559 59.2013 29.5199 59.08C29.1839 58.9587 28.7313 58.8327 28.1619 58.702C27.3966 58.5247 26.7666 58.338 26.2719 58.142C25.7866 57.946 25.3899 57.666 25.0819 57.302C24.7833 56.938 24.6339 56.462 24.6339 55.874C24.6339 55.314 24.7786 54.8193 25.0679 54.39C25.3666 53.9513 25.7866 53.6153 26.3279 53.382C26.8786 53.1393 27.5133 53.018 28.2319 53.018C28.9133 53.018 29.5479 53.1253 30.1359 53.34C30.7333 53.5547 31.2373 53.8627 31.6479 54.264L31.2139 55.146C30.7473 54.7447 30.2713 54.4553 29.7859 54.278C29.3099 54.0913 28.7919 53.998 28.2319 53.998C27.4666 53.998 26.8646 54.1613 26.4259 54.488C25.9966 54.8053 25.7819 55.2533 25.7819 55.832C25.7819 56.3267 25.9733 56.7 26.3559 56.952C26.7386 57.204 27.3173 57.4187 28.0919 57.596C28.9413 57.8013 29.6086 57.9927 30.0939 58.17C30.5793 58.338 30.9806 58.5947 31.2979 58.94C31.6246 59.2853 31.7879 59.7473 31.7879 60.326C31.7879 60.886 31.6386 61.376 31.3399 61.796C31.0506 62.216 30.6306 62.5427 30.0799 62.776C29.5293 63 28.8853 63.112 28.1479 63.112ZM36.4396 62.188C36.6449 62.188 36.8502 62.174 37.0556 62.146L36.9996 63.042C36.7849 63.0793 36.5516 63.098 36.2996 63.098C35.4782 63.098 34.8576 62.8833 34.4376 62.454C34.0269 62.0247 33.8216 61.4273 33.8216 60.662V57.078H32.4916V56.182H33.8216V54.11H34.9556V56.182H36.8876V57.078H34.9556V60.578C34.9556 61.6513 35.4502 62.188 36.4396 62.188ZM40.9734 56.014C41.8414 56.014 42.4854 56.238 42.9054 56.686C43.3347 57.1247 43.5494 57.7967 43.5494 58.702V63H42.4434V61.838C42.266 62.2393 41.9954 62.552 41.6314 62.776C41.2674 62.9907 40.8474 63.098 40.3714 63.098C39.9327 63.098 39.5267 63.0093 39.1534 62.832C38.7894 62.6547 38.5 62.4073 38.2854 62.09C38.0707 61.7727 37.9634 61.4227 37.9634 61.04C37.9634 60.5267 38.094 60.13 38.3554 59.85C38.6167 59.5607 39.046 59.3553 39.6434 59.234C40.2407 59.1033 41.0714 59.038 42.1354 59.038H42.4434V58.576C42.4434 58.0067 42.3267 57.596 42.0934 57.344C41.86 57.0827 41.482 56.952 40.9594 56.952C40.1754 56.952 39.396 57.1947 38.6214 57.68L38.2434 56.854C38.598 56.602 39.0227 56.4013 39.5174 56.252C40.0214 56.0933 40.5067 56.014 40.9734 56.014ZM40.5254 62.202C41.0854 62.202 41.5427 62.0153 41.8974 61.642C42.2614 61.2593 42.4434 60.7693 42.4434 60.172V59.766H42.1914C41.37 59.766 40.7447 59.8033 40.3154 59.878C39.886 59.9433 39.578 60.06 39.3914 60.228C39.214 60.3867 39.1254 60.6247 39.1254 60.942C39.1254 61.306 39.256 61.6093 39.5174 61.852C39.788 62.0853 40.124 62.202 40.5254 62.202ZM48.6212 62.188C48.8265 62.188 49.0319 62.174 49.2372 62.146L49.1812 63.042C48.9665 63.0793 48.7332 63.098 48.4812 63.098C47.6599 63.098 47.0392 62.8833 46.6192 62.454C46.2085 62.0247 46.0032 61.4273 46.0032 60.662V57.078H44.6732V56.182H46.0032V54.11H47.1372V56.182H49.0692V57.078H47.1372V60.578C47.1372 61.6513 47.6319 62.188 48.6212 62.188ZM50.383 63V56.182H51.517V63H50.383ZM50.271 53.228H51.643V54.502H50.271V53.228ZM56.4649 63.098C55.8209 63.098 55.2516 62.9533 54.7569 62.664C54.2716 62.3747 53.8936 61.964 53.6229 61.432C53.3616 60.8907 53.2309 60.2653 53.2309 59.556C53.2309 58.8467 53.3616 58.226 53.6229 57.694C53.8936 57.1527 54.2716 56.7373 54.7569 56.448C55.2516 56.1587 55.8209 56.014 56.4649 56.014C57.1089 56.014 57.6782 56.1587 58.1729 56.448C58.6676 56.7373 59.0456 57.1527 59.3069 57.694C59.5776 58.226 59.7129 58.8467 59.7129 59.556C59.7129 60.2653 59.5776 60.8907 59.3069 61.432C59.0456 61.964 58.6676 62.3747 58.1729 62.664C57.6782 62.9533 57.1089 63.098 56.4649 63.098ZM56.4649 62.16C57.1369 62.16 57.6502 61.9407 58.0049 61.502C58.3689 61.054 58.5509 60.4053 58.5509 59.556C58.5509 58.7253 58.3689 58.086 58.0049 57.638C57.6409 57.1807 57.1276 56.952 56.4649 56.952C55.8022 56.952 55.2889 57.1807 54.9249 57.638C54.5609 58.086 54.3789 58.7253 54.3789 59.556C54.3789 60.396 54.5562 61.04 54.9109 61.488C55.2749 61.936 55.7929 62.16 56.4649 62.16ZM64.8325 56.014C66.4659 56.014 67.2825 56.9147 67.2825 58.716V63H66.1485V58.786C66.1485 58.1513 66.0225 57.6893 65.7705 57.4C65.5279 57.1107 65.1359 56.966 64.5945 56.966C63.9692 56.966 63.4699 57.1573 63.0965 57.54C62.7232 57.9227 62.5365 58.4407 62.5365 59.094V63H61.4025V56.182H62.5225V57.302C62.7465 56.882 63.0592 56.5647 63.4605 56.35C63.8619 56.126 64.3192 56.014 64.8325 56.014ZM77.3509 63.112C76.4176 63.112 75.6056 62.9113 74.9149 62.51C74.2243 62.0993 73.6923 61.516 73.3189 60.76C72.9549 59.9947 72.7729 59.094 72.7729 58.058C72.7729 57.022 72.9549 56.126 73.3189 55.37C73.6923 54.614 74.2243 54.0353 74.9149 53.634C75.6056 53.2233 76.4176 53.018 77.3509 53.018C78.0323 53.018 78.6576 53.1253 79.2269 53.34C79.7963 53.5453 80.2909 53.8533 80.7109 54.264L80.2769 55.146C79.8009 54.7447 79.3343 54.4553 78.8769 54.278C78.4196 54.1007 77.9156 54.012 77.3649 54.012C76.2823 54.012 75.4423 54.3667 74.8449 55.076C74.2569 55.776 73.9629 56.77 73.9629 58.058C73.9629 59.3553 74.2569 60.3587 74.8449 61.068C75.4423 61.768 76.2823 62.118 77.3649 62.118C77.9156 62.118 78.4196 62.0293 78.8769 61.852C79.3343 61.6747 79.8009 61.3853 80.2769 60.984L80.7109 61.866C80.2909 62.2767 79.7963 62.5893 79.2269 62.804C78.6576 63.0093 78.0323 63.112 77.3509 63.112ZM90.3816 63H89.1216L87.4416 59.836C87.2362 59.4533 86.9936 59.192 86.7136 59.052C86.4429 58.9027 86.0696 58.828 85.5936 58.828H83.7456V63H82.6116V53.13H86.6716C87.7449 53.13 88.5616 53.368 89.1216 53.844C89.6909 54.32 89.9756 55.02 89.9756 55.944C89.9756 56.7093 89.7562 57.33 89.3176 57.806C88.8882 58.2727 88.2722 58.5667 87.4696 58.688C87.7216 58.7627 87.9409 58.8887 88.1276 59.066C88.3236 59.2433 88.5009 59.4813 88.6596 59.78L90.3816 63ZM86.5736 57.876C87.3389 57.876 87.9082 57.7173 88.2816 57.4C88.6642 57.0827 88.8556 56.602 88.8556 55.958C88.8556 55.3233 88.6689 54.852 88.2956 54.544C87.9222 54.236 87.3482 54.082 86.5736 54.082H83.7456V57.876H86.5736ZM100.595 53.13H101.533V63H100.483L100.497 55.356L97.2912 61.432H96.4792L93.2592 55.412L93.2732 63H92.2092V53.13H93.1612L96.8992 60.284L100.595 53.13Z" fill="black"/>
<path d="M51.9922 29.0199L72 36.4232V29.7852L51.9922 22.3818L32 29.7852V36.4232L51.9922 29.0199Z" fill="black"/>
<path d="M51.9922 29.02L32 36.4234L39.4207 40.0001L51.9922 35.3457L64.5793 40.0001L72 36.4234L51.9922 29.02Z" fill="#19C1CE"/>
<path d="M51.9922 10.9801L32 3.57666V10.2147L51.9922 17.6181L72 10.2147V3.57666L51.9922 10.9801Z" fill="black"/>
<path d="M51.9922 10.9801L72 3.57671L64.5793 0L51.9922 4.65448L39.4207 0L32 3.57671L51.9922 10.9801Z" fill="#19C1CE"/>
</svg>
