<svg width="103" height="68" viewBox="0 0 103 68" fill="none" xmlns="http://www.w3.org/2000/svg">
<path d="M23.5542 63.112C22.0142 63.112 20.7822 62.6967 19.8582 61.866L20.3062 60.984C20.7915 61.3947 21.2862 61.6887 21.7902 61.866C22.3035 62.0433 22.8962 62.132 23.5682 62.132C24.3615 62.132 24.9729 61.978 25.4022 61.67C25.8315 61.362 26.0462 60.928 26.0462 60.368C26.0462 60.0413 25.9435 59.7753 25.7382 59.57C25.5329 59.3647 25.2622 59.2013 24.9262 59.08C24.5902 58.9587 24.1375 58.8327 23.5682 58.702C22.8029 58.5247 22.1729 58.338 21.6782 58.142C21.1929 57.946 20.7962 57.666 20.4882 57.302C20.1895 56.938 20.0402 56.462 20.0402 55.874C20.0402 55.314 20.1849 54.8193 20.4742 54.39C20.7729 53.9513 21.1929 53.6153 21.7342 53.382C22.2849 53.1393 22.9195 53.018 23.6382 53.018C24.3195 53.018 24.9542 53.1253 25.5422 53.34C26.1395 53.5547 26.6435 53.8627 27.0542 54.264L26.6202 55.146C26.1535 54.7447 25.6775 54.4553 25.1922 54.278C24.7162 54.0913 24.1982 53.998 23.6382 53.998C22.8729 53.998 22.2709 54.1613 21.8322 54.488C21.4029 54.8053 21.1882 55.2533 21.1882 55.832C21.1882 56.3267 21.3795 56.7 21.7622 56.952C22.1449 57.204 22.7235 57.4187 23.4982 57.596C24.3475 57.8013 25.0149 57.9927 25.5002 58.17C25.9855 58.338 26.3869 58.5947 26.7042 58.94C27.0309 59.2853 27.1942 59.7473 27.1942 60.326C27.1942 60.886 27.0449 61.376 26.7462 61.796C26.4569 62.216 26.0369 62.5427 25.4862 62.776C24.9355 63 24.2915 63.112 23.5542 63.112ZM31.6628 56.014C32.5308 56.014 33.1748 56.238 33.5948 56.686C34.0242 57.1247 34.2388 57.7967 34.2388 58.702V63H33.1328V61.838C32.9555 62.2393 32.6848 62.552 32.3208 62.776C31.9568 62.9907 31.5368 63.098 31.0608 63.098C30.6222 63.098 30.2162 63.0093 29.8428 62.832C29.4788 62.6547 29.1895 62.4073 28.9748 62.09C28.7602 61.7727 28.6528 61.4227 28.6528 61.04C28.6528 60.5267 28.7835 60.13 29.0448 59.85C29.3062 59.5607 29.7355 59.3553 30.3328 59.234C30.9302 59.1033 31.7608 59.038 32.8248 59.038H33.1328V58.576C33.1328 58.0067 33.0162 57.596 32.7828 57.344C32.5495 57.0827 32.1715 56.952 31.6488 56.952C30.8648 56.952 30.0855 57.1947 29.3108 57.68L28.9328 56.854C29.2875 56.602 29.7122 56.4013 30.2068 56.252C30.7108 56.0933 31.1962 56.014 31.6628 56.014ZM31.2148 62.202C31.7748 62.202 32.2322 62.0153 32.5868 61.642C32.9508 61.2593 33.1328 60.7693 33.1328 60.172V59.766H32.8808C32.0595 59.766 31.4342 59.8033 31.0048 59.878C30.5755 59.9433 30.2675 60.06 30.0808 60.228C29.9035 60.3867 29.8148 60.6247 29.8148 60.942C29.8148 61.306 29.9455 61.6093 30.2068 61.852C30.4775 62.0853 30.8135 62.202 31.2148 62.202ZM36.3146 63V53.13H37.4486V63H36.3146ZM45.2806 59.766H40.2966C40.3339 60.5593 40.5486 61.1613 40.9406 61.572C41.3326 61.9733 41.8879 62.174 42.6066 62.174C43.3999 62.174 44.1279 61.9033 44.7906 61.362L45.1686 62.188C44.8699 62.468 44.4872 62.692 44.0206 62.86C43.5539 63.0187 43.0779 63.098 42.5926 63.098C41.5286 63.098 40.6886 62.7853 40.0726 62.16C39.4659 61.5347 39.1626 60.6713 39.1626 59.57C39.1626 58.87 39.2979 58.254 39.5686 57.722C39.8392 57.1807 40.2172 56.7607 40.7026 56.462C41.1972 56.1633 41.7572 56.014 42.3826 56.014C43.2879 56.014 43.9972 56.3127 44.5106 56.91C45.0239 57.498 45.2806 58.31 45.2806 59.346V59.766ZM42.3966 56.896C41.7992 56.896 41.3186 57.0827 40.9546 57.456C40.5999 57.8293 40.3899 58.3567 40.3246 59.038H44.2866C44.2679 58.3473 44.0952 57.82 43.7686 57.456C43.4419 57.0827 42.9846 56.896 42.3966 56.896ZM49.2614 63.098C48.1134 63.098 47.2034 62.804 46.5314 62.216L46.9094 61.376C47.2734 61.6653 47.642 61.8753 48.0154 62.006C48.398 62.1273 48.8274 62.188 49.3034 62.188C49.8074 62.188 50.19 62.104 50.4514 61.936C50.722 61.7587 50.8574 61.5067 50.8574 61.18C50.8574 60.9093 50.7687 60.6947 50.5914 60.536C50.414 60.3773 50.12 60.2513 49.7094 60.158L48.5614 59.892C47.9827 59.7613 47.5394 59.5373 47.2314 59.22C46.9234 58.9027 46.7694 58.5107 46.7694 58.044C46.7694 57.4373 47.0074 56.9473 47.4834 56.574C47.9594 56.2007 48.594 56.014 49.3874 56.014C49.8634 56.014 50.316 56.0933 50.7454 56.252C51.1747 56.4013 51.534 56.6207 51.8234 56.91L51.4454 57.736C50.82 57.204 50.134 56.938 49.3874 56.938C48.9114 56.938 48.538 57.0313 48.2674 57.218C48.006 57.3953 47.8754 57.6473 47.8754 57.974C47.8754 58.2447 47.9547 58.464 48.1134 58.632C48.2814 58.7907 48.5474 58.912 48.9114 58.996L50.0734 59.276C50.708 59.4253 51.1794 59.654 51.4874 59.962C51.7954 60.2607 51.9494 60.6527 51.9494 61.138C51.9494 61.7353 51.7067 62.2113 51.2214 62.566C50.7454 62.9207 50.092 63.098 49.2614 63.098ZM55.1899 56.182H57.1219V57.078H55.1899V63H54.0559V57.078H52.7259V56.182H54.0559V55.958C54.0559 55.0527 54.2799 54.3667 54.7279 53.9C55.1853 53.4333 55.8853 53.172 56.8279 53.116L57.3879 53.088L57.4719 53.97L56.8279 54.012C56.2586 54.0493 55.8433 54.2127 55.5819 54.502C55.3206 54.782 55.1899 55.216 55.1899 55.804V56.182ZM61.0313 63.098C60.3873 63.098 59.818 62.9533 59.3233 62.664C58.838 62.3747 58.46 61.964 58.1893 61.432C57.928 60.8907 57.7973 60.2653 57.7973 59.556C57.7973 58.8467 57.928 58.226 58.1893 57.694C58.46 57.1527 58.838 56.7373 59.3233 56.448C59.818 56.1587 60.3873 56.014 61.0313 56.014C61.6753 56.014 62.2447 56.1587 62.7393 56.448C63.234 56.7373 63.612 57.1527 63.8733 57.694C64.144 58.226 64.2793 58.8467 64.2793 59.556C64.2793 60.2653 64.144 60.8907 63.8733 61.432C63.612 61.964 63.234 62.3747 62.7393 62.664C62.2447 62.9533 61.6753 63.098 61.0313 63.098ZM61.0313 62.16C61.7033 62.16 62.2167 61.9407 62.5713 61.502C62.9353 61.054 63.1173 60.4053 63.1173 59.556C63.1173 58.7253 62.9353 58.086 62.5713 57.638C62.2073 57.1807 61.694 56.952 61.0313 56.952C60.3687 56.952 59.8553 57.1807 59.4913 57.638C59.1273 58.086 58.9453 58.7253 58.9453 59.556C58.9453 60.396 59.1227 61.04 59.4773 61.488C59.8413 61.936 60.3593 62.16 61.0313 62.16ZM69.8329 56.994L69.0909 57.064C68.3909 57.1293 67.8823 57.3487 67.5649 57.722C67.2569 58.0953 67.1029 58.5573 67.1029 59.108V63H65.9689V56.182H67.0749V57.372C67.4576 56.5787 68.2089 56.1353 69.3289 56.042L69.7349 56.014L69.8329 56.994ZM73.6518 63.098C72.9798 63.098 72.3964 62.9533 71.9018 62.664C71.4071 62.3747 71.0244 61.9687 70.7538 61.446C70.4924 60.914 70.3618 60.2933 70.3618 59.584C70.3618 58.8747 70.4971 58.254 70.7678 57.722C71.0478 57.1807 71.4351 56.7607 71.9298 56.462C72.4338 56.1633 73.0218 56.014 73.6938 56.014C74.1511 56.014 74.5991 56.098 75.0378 56.266C75.4764 56.4247 75.8311 56.6393 76.1018 56.91L75.7238 57.75C75.0798 57.2273 74.4264 56.966 73.7638 56.966C73.0638 56.966 72.5178 57.1947 72.1258 57.652C71.7338 58.1093 71.5378 58.7533 71.5378 59.584C71.5378 60.4053 71.7338 61.04 72.1258 61.488C72.5178 61.936 73.0638 62.16 73.7638 62.16C74.4264 62.16 75.0798 61.8987 75.7238 61.376L76.1018 62.216C75.8124 62.4867 75.4484 62.7013 75.0098 62.86C74.5711 63.0187 74.1184 63.098 73.6518 63.098ZM83.179 59.766H78.195C78.2323 60.5593 78.447 61.1613 78.839 61.572C79.231 61.9733 79.7863 62.174 80.505 62.174C81.2983 62.174 82.0263 61.9033 82.689 61.362L83.067 62.188C82.7683 62.468 82.3857 62.692 81.919 62.86C81.4523 63.0187 80.9763 63.098 80.491 63.098C79.427 63.098 78.587 62.7853 77.971 62.16C77.3643 61.5347 77.061 60.6713 77.061 59.57C77.061 58.87 77.1963 58.254 77.467 57.722C77.7377 57.1807 78.1157 56.7607 78.601 56.462C79.0957 56.1633 79.6557 56.014 80.281 56.014C81.1863 56.014 81.8957 56.3127 82.409 56.91C82.9223 57.498 83.179 58.31 83.179 59.346V59.766ZM80.295 56.896C79.6977 56.896 79.217 57.0827 78.853 57.456C78.4983 57.8293 78.2883 58.3567 78.223 59.038H82.185C82.1663 58.3473 81.9937 57.82 81.667 57.456C81.3403 57.0827 80.883 56.896 80.295 56.896Z" fill="black"/>
<g clip-path="url(#clip0_1570_3071)">
<path d="M48.6456 8.92382C49.9356 7.56355 51.7316 6.71994 53.7179 6.71994C56.3584 6.71994 58.6621 8.20996 59.8889 10.4219C60.955 9.93985 62.135 9.67171 63.3766 9.67171C68.139 9.67171 72 13.613 72 18.4746C72 23.3367 68.139 27.278 63.3766 27.278C62.7954 27.278 62.2274 27.2192 61.6781 27.1067C60.5977 29.0569 58.539 30.3745 56.1761 30.3745C55.1869 30.3745 54.2513 30.1433 53.4182 29.7321C52.3231 32.3391 49.7715 34.167 46.7977 34.167C43.7009 34.167 41.0615 32.184 40.0484 29.4029C39.6057 29.498 39.147 29.5476 38.6764 29.5476C34.9892 29.5476 32 26.4915 32 22.7209C32 20.1941 33.343 17.9879 35.3385 16.8075C34.9276 15.8509 34.6991 14.7951 34.6991 13.6851C34.6991 9.3488 38.1778 5.83366 42.4684 5.83366C44.9875 5.83366 47.2262 7.04574 48.6456 8.92382Z" fill="#00A1E0"/>
<path d="M37.7937 20.5262C37.7686 20.5925 37.8028 20.6063 37.8108 20.6179C37.886 20.6732 37.9624 20.713 38.0393 20.7574C38.4473 20.9765 38.8325 21.0405 39.2353 21.0405C40.0558 21.0405 40.5652 20.5988 40.5652 19.8878V19.874C40.5652 19.2166 39.9903 18.9779 39.4507 18.8055L39.3806 18.7824C38.9738 18.6487 38.6228 18.5333 38.6228 18.2623V18.2479C38.6228 18.0161 38.8279 17.8454 39.1458 17.8454C39.4991 17.8454 39.9185 17.9642 40.1886 18.1153C40.1886 18.1153 40.2678 18.1672 40.2968 18.0893C40.3128 18.0478 40.4495 17.6753 40.4638 17.6349C40.4792 17.5911 40.4518 17.5588 40.4239 17.5415C40.1156 17.3518 39.6894 17.2221 39.2484 17.2221L39.1664 17.2227C38.4154 17.2227 37.8911 17.6817 37.8911 18.3396V18.3534C37.8911 19.0471 38.4695 19.272 39.0114 19.4288L39.0986 19.4559C39.4934 19.5788 39.8336 19.6843 39.8336 19.9657V19.9795C39.8336 20.2367 39.6125 20.4281 39.2558 20.4281C39.1174 20.4281 38.6758 20.4253 38.1988 20.1202C38.1413 20.0862 38.1077 20.0614 38.0632 20.0343C38.0399 20.0193 37.9812 19.9934 37.9555 20.0718L37.7937 20.5262Z" fill="white"/>
<path d="M49.8057 20.5262C49.7806 20.5925 49.8148 20.6063 49.8228 20.6179C49.898 20.6732 49.9743 20.713 50.0513 20.7574C50.4592 20.9765 50.8444 21.0405 51.2473 21.0405C52.0678 21.0405 52.5772 20.5988 52.5772 19.8878V19.874C52.5772 19.2166 52.0023 18.9779 51.4627 18.8055L51.3926 18.7824C50.9857 18.6487 50.6347 18.5333 50.6347 18.2623V18.2479C50.6347 18.0161 50.8399 17.8454 51.1578 17.8454C51.5111 17.8454 51.9305 17.9642 52.2005 18.1153C52.2005 18.1153 52.2798 18.1672 52.3088 18.0893C52.3248 18.0478 52.4615 17.6753 52.4758 17.6349C52.4911 17.5911 52.4638 17.5588 52.4359 17.5415C52.1276 17.3518 51.7014 17.2221 51.2604 17.2221L51.1783 17.2227C50.4273 17.2227 49.9031 17.6817 49.9031 18.3396V18.3534C49.9031 19.0471 50.4815 19.272 51.0233 19.4288L51.1105 19.4559C51.5054 19.5788 51.8461 19.6843 51.8461 19.9657V19.9795C51.8461 20.2367 51.6245 20.4281 51.2678 20.4281C51.1293 20.4281 50.6877 20.4253 50.2108 20.1202C50.1532 20.0862 50.1191 20.0626 50.0758 20.0343C50.0609 20.0245 49.9914 19.9974 49.9675 20.0718L49.8057 20.5262Z" fill="white"/>
<path d="M58.0058 19.1337C58.0058 19.5356 57.9318 19.8522 57.7859 20.0759C57.6417 20.2973 57.4235 20.4052 57.1192 20.4052C56.8144 20.4052 56.5973 20.2979 56.4554 20.0759C56.3118 19.8527 56.2389 19.5356 56.2389 19.1337C56.2389 18.7324 56.3118 18.4164 56.4554 18.1949C56.5973 17.9758 56.8144 17.8691 57.1192 17.8691C57.4235 17.8691 57.6417 17.9758 57.7865 18.1949C57.9318 18.4164 58.0058 18.7324 58.0058 19.1337ZM58.6907 18.3887C58.6235 18.1586 58.5187 17.9556 58.3791 17.7867C58.2395 17.6171 58.0628 17.4811 57.8531 17.3819C57.644 17.2833 57.3967 17.2331 57.1192 17.2331C56.8412 17.2331 56.5939 17.2833 56.3848 17.3819C56.1751 17.4811 55.9984 17.6171 55.8583 17.7867C55.7192 17.9562 55.6144 18.1592 55.5466 18.3887C55.4799 18.6176 55.4463 18.8679 55.4463 19.1337C55.4463 19.3995 55.4799 19.6503 55.5466 19.8787C55.6144 20.1082 55.7187 20.3112 55.8588 20.4807C55.9984 20.6502 56.1756 20.7857 56.3848 20.882C56.5944 20.9783 56.8412 21.0273 57.1192 21.0273C57.3967 21.0273 57.6434 20.9783 57.8531 20.882C58.0622 20.7857 58.2395 20.6502 58.3791 20.4807C58.5187 20.3117 58.6235 20.1088 58.6907 19.8787C58.758 19.6498 58.7916 19.3989 58.7916 19.1337C58.7916 18.8684 58.758 18.6176 58.6907 18.3887Z" fill="white"/>
<path d="M64.3151 20.2982C64.2923 20.2307 64.2279 20.2561 64.2279 20.2561C64.1282 20.2947 64.0222 20.3305 63.9094 20.3483C63.7949 20.3662 63.6689 20.3754 63.5339 20.3754C63.2023 20.3754 62.939 20.2757 62.7504 20.0785C62.5613 19.8813 62.4553 19.5624 62.4564 19.1311C62.4575 18.7384 62.551 18.4432 62.7191 18.2183C62.886 17.9945 63.1402 17.8798 63.4792 17.8798C63.7618 17.8798 63.9772 17.9127 64.2028 17.9847C64.2028 17.9847 64.257 18.0084 64.2826 17.9369C64.3424 17.7685 64.3869 17.648 64.4507 17.4629C64.4689 17.4104 64.4245 17.3879 64.4085 17.3816C64.3197 17.3464 64.11 17.2893 63.9516 17.2651C63.8034 17.242 63.6302 17.2299 63.4376 17.2299C63.1499 17.2299 62.8934 17.2795 62.6741 17.3787C62.4553 17.4773 62.2695 17.6134 62.1225 17.7829C61.9755 17.9524 61.8638 18.1554 61.7892 18.3849C61.7151 18.6138 61.6775 18.8652 61.6775 19.1311C61.6775 19.706 61.8308 20.1707 62.1333 20.5109C62.4365 20.8523 62.8917 21.0259 63.4855 21.0259C63.8365 21.0259 64.1966 20.9538 64.4553 20.8506C64.4553 20.8506 64.5048 20.8264 64.4832 20.7681L64.3151 20.2982Z" fill="white"/>
<path d="M65.5134 18.7489C65.5459 18.5257 65.6068 18.3401 65.7008 18.1953C65.8427 17.9756 66.0593 17.8551 66.3635 17.8551C66.6678 17.8551 66.8689 17.9762 67.0131 18.1953C67.1088 18.3401 67.1504 18.5338 67.1669 18.7489H65.5134ZM67.8194 18.2582C67.7612 18.0362 67.6171 17.8119 67.5225 17.7092C67.3732 17.5466 67.2273 17.433 67.0826 17.3696C66.8934 17.2877 66.6667 17.2335 66.4182 17.2335C66.1288 17.2335 65.8661 17.2825 65.653 17.384C65.4393 17.4855 65.2598 17.6239 65.1191 17.7963C64.9783 17.9681 64.8724 18.1728 64.8051 18.4052C64.7373 18.6364 64.7031 18.8884 64.7031 19.1543C64.7031 19.4247 64.7385 19.6767 64.8085 19.9033C64.8792 20.1317 64.992 20.3329 65.1447 20.4995C65.2969 20.6673 65.4929 20.7988 65.7276 20.8905C65.9607 20.9816 66.2439 21.0289 66.5692 21.0283C67.2387 21.026 67.5914 20.8749 67.7367 20.7936C67.7624 20.7792 67.7869 20.7538 67.7561 20.6812L67.6046 20.2516C67.5818 20.1876 67.5174 20.2112 67.5174 20.2112C67.3516 20.2735 67.1157 20.3854 66.5658 20.3842C66.2063 20.3836 65.9396 20.2764 65.7726 20.1086C65.6011 19.9368 65.5174 19.6842 65.5026 19.3278L67.8211 19.3301C67.8211 19.3301 67.882 19.329 67.8883 19.269C67.8906 19.2436 67.9681 18.787 67.8194 18.2582Z" fill="white"/>
<path d="M46.9455 18.7489C46.9786 18.5257 47.039 18.3401 47.133 18.1953C47.2749 17.9756 47.4914 17.8551 47.7957 17.8551C48.0999 17.8551 48.3011 17.9762 48.4458 18.1953C48.541 18.3401 48.5825 18.5338 48.5991 18.7489H46.9455ZM49.2509 18.2582C49.1928 18.0362 49.0492 17.8119 48.9546 17.7092C48.8053 17.5466 48.6595 17.433 48.5147 17.3696C48.3256 17.2877 48.0988 17.2335 47.8504 17.2335C47.5615 17.2335 47.2982 17.2825 47.0851 17.384C46.8714 17.4855 46.6919 17.6239 46.5512 17.7963C46.4105 17.9681 46.3045 18.1728 46.2372 18.4052C46.17 18.6364 46.1353 18.8884 46.1353 19.1543C46.1353 19.4247 46.1706 19.6767 46.2407 19.9033C46.3113 20.1317 46.4241 20.3329 46.5768 20.4995C46.729 20.6673 46.925 20.7988 47.1598 20.8905C47.3928 20.9816 47.676 21.0289 48.0014 21.0283C48.6709 21.026 49.0236 20.8749 49.1689 20.7936C49.1945 20.7792 49.219 20.7538 49.1882 20.6812L49.0372 20.2516C49.0139 20.1876 48.9495 20.2112 48.9495 20.2112C48.7837 20.2735 48.5484 20.3854 47.9974 20.3842C47.6384 20.3836 47.3717 20.2764 47.2048 20.1086C47.0333 19.9368 46.9495 19.6842 46.9347 19.3278L49.2532 19.3301C49.2532 19.3301 49.3142 19.329 49.3204 19.269C49.3227 19.2436 49.4002 18.787 49.2509 18.2582Z" fill="white"/>
<path d="M41.9339 20.2851C41.8433 20.2119 41.8308 20.1934 41.8 20.1462C41.7544 20.0741 41.7311 19.9714 41.7311 19.8411C41.7311 19.6347 41.7983 19.4865 41.9379 19.3867C41.9362 19.3873 42.1373 19.2109 42.6103 19.2172C42.9425 19.2218 43.2393 19.2714 43.2393 19.2714V20.3382H43.2399C43.2399 20.3382 42.9453 20.4022 42.6137 20.4224C42.1419 20.4512 41.9322 20.2846 41.9339 20.2851ZM42.8564 18.6365C42.7624 18.6296 42.6405 18.6256 42.4946 18.6256C42.2957 18.6256 42.1037 18.651 41.9237 18.7C41.7425 18.749 41.5795 18.8257 41.4393 18.9272C41.2986 19.0292 41.1852 19.1595 41.1031 19.3141C41.0211 19.4686 40.9795 19.6508 40.9795 19.855C40.9795 20.0626 41.0148 20.243 41.0855 20.3907C41.1561 20.5388 41.2581 20.6622 41.388 20.7574C41.5168 20.8525 41.6758 20.9223 41.8604 20.9644C42.0422 21.0065 42.2484 21.0278 42.4741 21.0278C42.7117 21.0278 42.9487 21.0082 43.1784 20.9684C43.4057 20.9292 43.6849 20.8721 43.7624 20.8543C43.8393 20.8358 43.9248 20.8122 43.9248 20.8122C43.9823 20.7978 43.9778 20.7355 43.9778 20.7355L43.9766 18.5898C43.9766 18.1193 43.8524 17.7704 43.608 17.5542C43.3647 17.3385 43.0063 17.2296 42.543 17.2296C42.3692 17.2296 42.0895 17.2538 41.9219 17.2878C41.9219 17.2878 41.4154 17.387 41.2068 17.5519C41.2068 17.5519 41.1613 17.5807 41.1863 17.6453L41.3504 18.0916C41.3709 18.1493 41.4262 18.1297 41.4262 18.1297C41.4262 18.1297 41.4439 18.1228 41.4644 18.1107C41.9105 17.865 42.4747 17.8725 42.4747 17.8725C42.7254 17.8725 42.918 17.9232 43.0479 18.0242C43.1744 18.1222 43.2388 18.2704 43.2388 18.5829V18.6821C43.0393 18.6533 42.8564 18.6365 42.8564 18.6365Z" fill="white"/>
<path d="M61.5563 17.4274C61.5739 17.3743 61.5369 17.349 61.5215 17.3432C61.4822 17.3276 61.285 17.2855 61.1329 17.2757C60.8417 17.2579 60.6799 17.3074 60.5352 17.3732C60.3916 17.4389 60.2321 17.545 60.1432 17.6655V17.3801C60.1432 17.3403 60.1152 17.3086 60.0765 17.3086H59.4822C59.4434 17.3086 59.4155 17.3403 59.4155 17.3801V20.8797C59.4155 20.9189 59.4474 20.9512 59.4862 20.9512H60.0953C60.134 20.9512 60.1654 20.9189 60.1654 20.8797V19.1313C60.1654 18.8966 60.191 18.6625 60.2423 18.5155C60.2925 18.3702 60.3608 18.2537 60.4452 18.1701C60.5301 18.087 60.6264 18.0288 60.7318 17.9959C60.8395 17.9625 60.9586 17.9515 61.0429 17.9515C61.1642 17.9515 61.2976 17.9833 61.2976 17.9833C61.342 17.9884 61.3671 17.9608 61.3819 17.9198C61.4218 17.8126 61.5346 17.4914 61.5563 17.4274Z" fill="white"/>
<path d="M55.8388 15.8055C55.7648 15.7824 55.6975 15.7669 55.6098 15.7501C55.5209 15.734 55.4149 15.7259 55.2947 15.7259C54.8753 15.7259 54.5448 15.8459 54.3129 16.0823C54.0821 16.3176 53.9254 16.6756 53.8468 17.1467L53.8183 17.3053H53.2918C53.2918 17.3053 53.228 17.303 53.2143 17.3734L53.1283 17.8618C53.122 17.9079 53.142 17.9373 53.2035 17.9373H53.7158L53.1961 20.8735C53.1556 21.1099 53.1089 21.3043 53.0571 21.4519C53.0064 21.5972 52.9568 21.7062 52.8952 21.7857C52.836 21.8619 52.7801 21.9184 52.6833 21.9512C52.6035 21.9783 52.5112 21.991 52.4103 21.991C52.3545 21.991 52.2799 21.9818 52.2246 21.9703C52.1699 21.9593 52.1408 21.9472 52.0992 21.9293C52.0992 21.9293 52.0394 21.9063 52.0155 21.9668C51.9967 22.017 51.8599 22.397 51.8434 22.4437C51.8274 22.4904 51.8502 22.5267 51.8793 22.5377C51.9477 22.5619 51.9984 22.578 52.0913 22.6005C52.22 22.6311 52.3289 22.6328 52.4309 22.6328C52.644 22.6328 52.8388 22.6023 53.0001 22.5434C53.1619 22.484 53.3032 22.3808 53.4286 22.2413C53.5636 22.0902 53.6485 21.9322 53.7294 21.716C53.8098 21.5026 53.8787 21.2374 53.9334 20.9283L54.4559 17.9373H55.2195C55.2195 17.9373 55.2838 17.9396 55.2969 17.8687L55.3836 17.3809C55.3893 17.3342 55.3699 17.3053 55.3078 17.3053H54.5665C54.5705 17.2886 54.6041 17.0245 54.689 16.776C54.7254 16.6705 54.7938 16.5845 54.8514 16.5257C54.9083 16.4681 54.9739 16.4271 55.0457 16.4035C55.1192 16.3793 55.2029 16.3677 55.2947 16.3677C55.3642 16.3677 55.4331 16.3758 55.485 16.3867C55.5568 16.4023 55.5847 16.4104 55.6035 16.4162C55.6793 16.4392 55.6895 16.4167 55.7044 16.3798L55.8816 15.8874C55.8998 15.8343 55.8548 15.8118 55.8388 15.8055Z" fill="white"/>
<path d="M45.4805 20.8802C45.4805 20.9195 45.4526 20.9512 45.4139 20.9512H44.7997C44.761 20.9512 44.7336 20.9195 44.7336 20.8802V15.8728C44.7336 15.8336 44.761 15.8019 44.7997 15.8019H45.4139C45.4526 15.8019 45.4805 15.8336 45.4805 15.8728V20.8802Z" fill="white"/>
</g>
<defs>
<clipPath id="clip0_1570_3071">
<rect width="40" height="40" fill="white" transform="translate(32)"/>
</clipPath>
</defs>
</svg>
