<svg width="103" height="68" viewBox="0 0 103 68" fill="none" xmlns="http://www.w3.org/2000/svg">
<path d="M31.9829 63.112C30.4429 63.112 29.2109 62.6967 28.2869 61.866L28.7349 60.984C29.2202 61.3947 29.7149 61.6887 30.2189 61.866C30.7322 62.0433 31.3249 62.132 31.9969 62.132C32.7902 62.132 33.4016 61.978 33.8309 61.67C34.2602 61.362 34.4749 60.928 34.4749 60.368C34.4749 60.0413 34.3722 59.7753 34.1669 59.57C33.9616 59.3647 33.6909 59.2013 33.3549 59.08C33.0189 58.9587 32.5662 58.8327 31.9969 58.702C31.2316 58.5247 30.6016 58.338 30.1069 58.142C29.6216 57.946 29.2249 57.666 28.9169 57.302C28.6182 56.938 28.4689 56.462 28.4689 55.874C28.4689 55.314 28.6136 54.8193 28.9029 54.39C29.2016 53.9513 29.6216 53.6153 30.1629 53.382C30.7136 53.1393 31.3482 53.018 32.0669 53.018C32.7482 53.018 33.3829 53.1253 33.9709 53.34C34.5682 53.5547 35.0722 53.8627 35.4829 54.264L35.0489 55.146C34.5822 54.7447 34.1062 54.4553 33.6209 54.278C33.1449 54.0913 32.6269 53.998 32.0669 53.998C31.3016 53.998 30.6996 54.1613 30.2609 54.488C29.8316 54.8053 29.6169 55.2533 29.6169 55.832C29.6169 56.3267 29.8082 56.7 30.1909 56.952C30.5736 57.204 31.1522 57.4187 31.9269 57.596C32.7762 57.8013 33.4436 57.9927 33.9289 58.17C34.4142 58.338 34.8156 58.5947 35.1329 58.94C35.4596 59.2853 35.6229 59.7473 35.6229 60.326C35.6229 60.886 35.4736 61.376 35.1749 61.796C34.8856 62.216 34.4656 62.5427 33.9149 62.776C33.3642 63 32.7202 63.112 31.9829 63.112ZM40.7495 56.014C42.3829 56.014 43.1995 56.9147 43.1995 58.716V63H42.0655V58.786C42.0655 58.1513 41.9395 57.6893 41.6875 57.4C41.4449 57.1107 41.0529 56.966 40.5115 56.966C39.8862 56.966 39.3869 57.1573 39.0135 57.54C38.6402 57.9227 38.4535 58.4407 38.4535 59.094V63H37.3195V53.13H38.4535V57.274C38.6775 56.8633 38.9855 56.5507 39.3775 56.336C39.7789 56.1213 40.2362 56.014 40.7495 56.014ZM48.1046 63.098C47.4606 63.098 46.8912 62.9533 46.3966 62.664C45.9112 62.3747 45.5332 61.964 45.2626 61.432C45.0012 60.8907 44.8706 60.2653 44.8706 59.556C44.8706 58.8467 45.0012 58.226 45.2626 57.694C45.5332 57.1527 45.9112 56.7373 46.3966 56.448C46.8912 56.1587 47.4606 56.014 48.1046 56.014C48.7486 56.014 49.3179 56.1587 49.8126 56.448C50.3072 56.7373 50.6852 57.1527 50.9466 57.694C51.2172 58.226 51.3526 58.8467 51.3526 59.556C51.3526 60.2653 51.2172 60.8907 50.9466 61.432C50.6852 61.964 50.3072 62.3747 49.8126 62.664C49.3179 62.9533 48.7486 63.098 48.1046 63.098ZM48.1046 62.16C48.7766 62.16 49.2899 61.9407 49.6446 61.502C50.0086 61.054 50.1906 60.4053 50.1906 59.556C50.1906 58.7253 50.0086 58.086 49.6446 57.638C49.2806 57.1807 48.7672 56.952 48.1046 56.952C47.4419 56.952 46.9286 57.1807 46.5646 57.638C46.2006 58.086 46.0186 58.7253 46.0186 59.556C46.0186 60.396 46.1959 61.04 46.5506 61.488C46.9146 61.936 47.4326 62.16 48.1046 62.16ZM56.4722 56.014C57.0695 56.014 57.5969 56.1633 58.0542 56.462C58.5115 56.7607 58.8662 57.1807 59.1182 57.722C59.3702 58.254 59.4962 58.8747 59.4962 59.584C59.4962 60.2933 59.3702 60.914 59.1182 61.446C58.8662 61.9687 58.5115 62.3747 58.0542 62.664C57.6062 62.9533 57.0789 63.098 56.4722 63.098C55.9402 63.098 55.4735 62.9813 55.0722 62.748C54.6802 62.5147 54.3815 62.1833 54.1762 61.754V65.52H53.0422V56.182H54.1762V57.358C54.3815 56.9287 54.6802 56.5973 55.0722 56.364C55.4735 56.1307 55.9402 56.014 56.4722 56.014ZM56.2482 62.16C56.9109 62.16 57.4242 61.936 57.7882 61.488C58.1522 61.04 58.3342 60.4053 58.3342 59.584C58.3342 58.7627 58.1522 58.1233 57.7882 57.666C57.4242 57.1993 56.9109 56.966 56.2482 56.966C55.5855 56.966 55.0722 57.19 54.7082 57.638C54.3535 58.086 54.1762 58.7253 54.1762 59.556C54.1762 60.3867 54.3535 61.0307 54.7082 61.488C55.0722 61.936 55.5855 62.16 56.2482 62.16ZM61.1906 63V56.182H62.3246V63H61.1906ZM61.0786 53.228H62.4506V54.502H61.0786V53.228ZM65.9565 56.182H67.8885V57.078H65.9565V63H64.8225V57.078H63.4925V56.182H64.8225V55.958C64.8225 55.0527 65.0465 54.3667 65.4945 53.9C65.9519 53.4333 66.6519 53.172 67.5945 53.116L68.1545 53.088L68.2385 53.97L67.5945 54.012C67.0252 54.0493 66.6099 54.2127 66.3485 54.502C66.0872 54.782 65.9565 55.216 65.9565 55.804V56.182ZM74.1157 56.196H75.2497L71.2177 65.52H70.0557L71.2037 62.916L68.3197 56.196H69.5237L71.8057 61.768L74.1157 56.196Z" fill="black"/>
<g clip-path="url(#clip0_1570_3217)">
<path d="M65.155 7.78811C65.1275 7.58696 64.9523 7.47578 64.8075 7.46357C64.6629 7.45136 61.6036 7.22353 61.6036 7.22353C61.6036 7.22353 59.4789 5.10371 59.2459 4.86914C59.0124 4.63457 58.5568 4.7059 58.38 4.75828C58.3538 4.76599 57.9157 4.90191 57.1909 5.12717C56.481 3.07482 55.2286 1.18861 53.0249 1.18861C52.9642 1.18861 52.9015 1.19118 52.8388 1.19471C52.2122 0.361819 51.4358 0 50.7653 0C45.6322 0 43.1797 6.4488 42.4108 9.72606C40.4162 10.3472 38.9991 10.7887 38.8181 10.8459C37.7048 11.1968 37.6696 11.2321 37.5235 12.2864C37.4132 13.0846 34.5 35.7256 34.5 35.7256L57.2001 40L69.5 37.3259C69.5 37.3259 65.1822 7.98927 65.155 7.78811ZM55.9362 5.51726C55.3661 5.69464 54.718 5.89611 54.0155 6.11462C54.0161 5.9787 54.0168 5.8447 54.0168 5.69849C54.0168 4.42281 53.8406 3.39583 53.5579 2.58158C54.6934 2.72489 55.4495 4.02307 55.9362 5.51726ZM52.1495 2.83447C52.4651 3.62944 52.6703 4.77017 52.6703 6.30967C52.6703 6.38839 52.6697 6.46037 52.6691 6.53331C51.4198 6.92213 50.0625 7.34435 48.702 7.76787C49.4659 4.80519 50.8977 3.3743 52.1495 2.83447ZM50.6243 1.38365C50.8459 1.38365 51.0691 1.45917 51.2827 1.60698C49.6376 2.38492 47.8742 4.3444 47.1295 8.25726C46.0411 8.59594 44.9773 8.92691 43.9938 9.23314C44.8661 6.24861 46.9374 1.38365 50.6243 1.38365Z" fill="#95BF46"/>
<path d="M64.8075 7.46355C64.6629 7.45134 61.6036 7.22352 61.6036 7.22352C61.6036 7.22352 59.4789 5.10369 59.2459 4.86912C59.1586 4.78172 59.0409 4.73705 58.9178 4.71777L57.2014 39.9997L69.5 37.3259C69.5 37.3259 65.1822 7.98925 65.155 7.7881C65.1275 7.58694 64.9523 7.47576 64.8075 7.46355Z" fill="#5E8E3E"/>
<path d="M53.025 14.2936L51.5085 18.8273C51.5085 18.8273 50.1796 18.1146 48.5509 18.1146C46.163 18.1146 46.0428 19.6207 46.0428 20.0002C46.0428 22.0708 51.4138 22.8642 51.4138 27.7144C51.4138 31.5302 49.0055 33.9874 45.7582 33.9874C41.8615 33.9874 39.8689 31.5501 39.8689 31.5501L40.9122 28.0858C40.9122 28.0858 42.9605 29.8532 44.689 29.8532C45.8184 29.8532 46.2778 28.9595 46.2778 28.3066C46.2778 25.6055 41.8714 25.485 41.8714 21.0468C41.8714 17.3113 44.5394 13.6963 49.9248 13.6963C51.9999 13.6963 53.025 14.2936 53.025 14.2936Z" fill="white"/>
</g>
<defs>
<clipPath id="clip0_1570_3217">
<rect width="40" height="40" fill="white" transform="translate(32)"/>
</clipPath>
</defs>
</svg>
