<svg width="103" height="68" viewBox="0 0 103 68" fill="none" xmlns="http://www.w3.org/2000/svg">
<path d="M30.7555 53.13H31.8755L28.4315 63H27.4515L24.6375 54.922L21.8235 63H20.8575L17.3995 53.13H18.5615L21.3615 61.376L24.2315 53.13L25.0995 53.144L27.9275 61.39L30.7555 53.13ZM35.4444 63.098C34.8004 63.098 34.2311 62.9533 33.7364 62.664C33.2511 62.3747 32.8731 61.964 32.6024 61.432C32.3411 60.8907 32.2104 60.2653 32.2104 59.556C32.2104 58.8467 32.3411 58.226 32.6024 57.694C32.8731 57.1527 33.2511 56.7373 33.7364 56.448C34.2311 56.1587 34.8004 56.014 35.4444 56.014C36.0884 56.014 36.6577 56.1587 37.1524 56.448C37.6471 56.7373 38.0251 57.1527 38.2864 57.694C38.5571 58.226 38.6924 58.8467 38.6924 59.556C38.6924 60.2653 38.5571 60.8907 38.2864 61.432C38.0251 61.964 37.6471 62.3747 37.1524 62.664C36.6577 62.9533 36.0884 63.098 35.4444 63.098ZM35.4444 62.16C36.1164 62.16 36.6297 61.9407 36.9844 61.502C37.3484 61.054 37.5304 60.4053 37.5304 59.556C37.5304 58.7253 37.3484 58.086 36.9844 57.638C36.6204 57.1807 36.1071 56.952 35.4444 56.952C34.7817 56.952 34.2684 57.1807 33.9044 57.638C33.5404 58.086 33.3584 58.7253 33.3584 59.556C33.3584 60.396 33.5357 61.04 33.8904 61.488C34.2544 61.936 34.7724 62.16 35.4444 62.16ZM44.246 56.994L43.504 57.064C42.804 57.1293 42.2954 57.3487 41.978 57.722C41.67 58.0953 41.516 58.5573 41.516 59.108V63H40.382V56.182H41.488V57.372C41.8707 56.5787 42.622 56.1353 43.742 56.042L44.148 56.014L44.246 56.994ZM51.2289 53.13V63H50.0949V61.754C49.8895 62.1833 49.5862 62.5147 49.1849 62.748C48.7929 62.9813 48.3309 63.098 47.7989 63.098C47.2015 63.098 46.6742 62.9487 46.2169 62.65C45.7595 62.3513 45.4049 61.936 45.1529 61.404C44.9009 60.8627 44.7749 60.2373 44.7749 59.528C44.7749 58.828 44.9009 58.212 45.1529 57.68C45.4049 57.148 45.7595 56.7373 46.2169 56.448C46.6742 56.1587 47.2015 56.014 47.7989 56.014C48.3309 56.014 48.7929 56.1307 49.1849 56.364C49.5862 56.5973 49.8895 56.9287 50.0949 57.358V53.13H51.2289ZM48.0229 62.16C48.6855 62.16 49.1942 61.936 49.5489 61.488C49.9129 61.0307 50.0949 60.3867 50.0949 59.556C50.0949 58.7253 49.9129 58.086 49.5489 57.638C49.1942 57.19 48.6855 56.966 48.0229 56.966C47.3602 56.966 46.8422 57.19 46.4689 57.638C46.1049 58.086 45.9229 58.716 45.9229 59.528C45.9229 60.3587 46.1049 61.0073 46.4689 61.474C46.8422 61.9313 47.3602 62.16 48.0229 62.16ZM56.7593 56.014C57.3566 56.014 57.884 56.1633 58.3413 56.462C58.7986 56.7607 59.1533 57.1807 59.4053 57.722C59.6573 58.254 59.7833 58.8747 59.7833 59.584C59.7833 60.2933 59.6573 60.914 59.4053 61.446C59.1533 61.9687 58.7986 62.3747 58.3413 62.664C57.8933 62.9533 57.366 63.098 56.7593 63.098C56.2273 63.098 55.7606 62.9813 55.3593 62.748C54.9673 62.5147 54.6686 62.1833 54.4633 61.754V65.52H53.3293V56.182H54.4633V57.358C54.6686 56.9287 54.9673 56.5973 55.3593 56.364C55.7606 56.1307 56.2273 56.014 56.7593 56.014ZM56.5353 62.16C57.198 62.16 57.7113 61.936 58.0753 61.488C58.4393 61.04 58.6213 60.4053 58.6213 59.584C58.6213 58.7627 58.4393 58.1233 58.0753 57.666C57.7113 57.1993 57.198 56.966 56.5353 56.966C55.8726 56.966 55.3593 57.19 54.9953 57.638C54.6406 58.086 54.4633 58.7253 54.4633 59.556C54.4633 60.3867 54.6406 61.0307 54.9953 61.488C55.3593 61.936 55.8726 62.16 56.5353 62.16ZM65.3417 56.994L64.5997 57.064C63.8997 57.1293 63.3911 57.3487 63.0737 57.722C62.7657 58.0953 62.6117 58.5573 62.6117 59.108V63H61.4777V56.182H62.5837V57.372C62.9664 56.5787 63.7177 56.1353 64.8377 56.042L65.2437 56.014L65.3417 56.994ZM71.9886 59.766H67.0046C67.0419 60.5593 67.2566 61.1613 67.6486 61.572C68.0406 61.9733 68.5959 62.174 69.3146 62.174C70.1079 62.174 70.8359 61.9033 71.4986 61.362L71.8766 62.188C71.5779 62.468 71.1952 62.692 70.7286 62.86C70.2619 63.0187 69.7859 63.098 69.3006 63.098C68.2366 63.098 67.3966 62.7853 66.7806 62.16C66.1739 61.5347 65.8706 60.6713 65.8706 59.57C65.8706 58.87 66.0059 58.254 66.2766 57.722C66.5472 57.1807 66.9252 56.7607 67.4106 56.462C67.9052 56.1633 68.4652 56.014 69.0906 56.014C69.9959 56.014 70.7052 56.3127 71.2186 56.91C71.7319 57.498 71.9886 58.31 71.9886 59.346V59.766ZM69.1046 56.896C68.5072 56.896 68.0266 57.0827 67.6626 57.456C67.3079 57.8293 67.0979 58.3567 67.0326 59.038H70.9946C70.9759 58.3473 70.8032 57.82 70.4766 57.456C70.1499 57.0827 69.6926 56.896 69.1046 56.896ZM75.9694 63.098C74.8214 63.098 73.9114 62.804 73.2394 62.216L73.6174 61.376C73.9814 61.6653 74.35 61.8753 74.7234 62.006C75.106 62.1273 75.5354 62.188 76.0114 62.188C76.5154 62.188 76.898 62.104 77.1594 61.936C77.43 61.7587 77.5654 61.5067 77.5654 61.18C77.5654 60.9093 77.4767 60.6947 77.2994 60.536C77.122 60.3773 76.828 60.2513 76.4174 60.158L75.2694 59.892C74.6907 59.7613 74.2474 59.5373 73.9394 59.22C73.6314 58.9027 73.4774 58.5107 73.4774 58.044C73.4774 57.4373 73.7154 56.9473 74.1914 56.574C74.6674 56.2007 75.302 56.014 76.0954 56.014C76.5714 56.014 77.024 56.0933 77.4534 56.252C77.8827 56.4013 78.242 56.6207 78.5314 56.91L78.1534 57.736C77.528 57.204 76.842 56.938 76.0954 56.938C75.6194 56.938 75.246 57.0313 74.9754 57.218C74.714 57.3953 74.5834 57.6473 74.5834 57.974C74.5834 58.2447 74.6627 58.464 74.8214 58.632C74.9894 58.7907 75.2554 58.912 75.6194 58.996L76.7814 59.276C77.416 59.4253 77.8874 59.654 78.1954 59.962C78.5034 60.2607 78.6574 60.6527 78.6574 61.138C78.6574 61.7353 78.4147 62.2113 77.9294 62.566C77.4534 62.9207 76.8 63.098 75.9694 63.098ZM82.6959 63.098C81.5479 63.098 80.6379 62.804 79.9659 62.216L80.3439 61.376C80.7079 61.6653 81.0766 61.8753 81.4499 62.006C81.8326 62.1273 82.2619 62.188 82.7379 62.188C83.2419 62.188 83.6246 62.104 83.8859 61.936C84.1566 61.7587 84.2919 61.5067 84.2919 61.18C84.2919 60.9093 84.2033 60.6947 84.0259 60.536C83.8486 60.3773 83.5546 60.2513 83.1439 60.158L81.9959 59.892C81.4173 59.7613 80.9739 59.5373 80.6659 59.22C80.3579 58.9027 80.2039 58.5107 80.2039 58.044C80.2039 57.4373 80.4419 56.9473 80.9179 56.574C81.3939 56.2007 82.0286 56.014 82.8219 56.014C83.2979 56.014 83.7506 56.0933 84.1799 56.252C84.6093 56.4013 84.9686 56.6207 85.2579 56.91L84.8799 57.736C84.2546 57.204 83.5686 56.938 82.8219 56.938C82.3459 56.938 81.9726 57.0313 81.7019 57.218C81.4406 57.3953 81.3099 57.6473 81.3099 57.974C81.3099 58.2447 81.3893 58.464 81.5479 58.632C81.7159 58.7907 81.9819 58.912 82.3459 58.996L83.5079 59.276C84.1426 59.4253 84.6139 59.654 84.9219 59.962C85.2299 60.2607 85.3839 60.6527 85.3839 61.138C85.3839 61.7353 85.1413 62.2113 84.6559 62.566C84.1799 62.9207 83.5266 63.098 82.6959 63.098Z" fill="black"/>
<g clip-path="url(#clip0_1570_3163)">
<path d="M30.8428 20.0001C30.8428 26.7915 34.7894 32.6606 40.5122 35.4419L32.3282 13.0174C31.3762 15.1512 30.8428 17.5126 30.8428 20.0001ZM59.5816 19.1343C59.5816 17.0138 58.82 15.5453 58.1667 14.4023C57.2971 12.989 56.4819 11.7921 56.4819 10.3788C56.4819 8.80154 57.678 7.33336 59.3629 7.33336C59.4389 7.33336 59.5111 7.34283 59.5852 7.34707C56.5328 4.55046 52.4661 2.84298 47.9995 2.84298C42.0057 2.84298 36.7324 5.9184 33.6647 10.5766C34.0672 10.5887 34.4466 10.5972 34.7688 10.5972C36.5633 10.5972 39.3412 10.3794 39.3412 10.3794C40.266 10.3249 40.3751 11.6834 39.4512 11.7927C39.4512 11.7927 38.5218 11.9021 37.4875 11.9563L43.7353 30.5411L47.4899 19.2799L44.8169 11.9556C43.893 11.9015 43.0178 11.7921 43.0178 11.7921C42.0932 11.7379 42.2016 10.3242 43.1261 10.3788C43.1261 10.3788 45.9595 10.5965 47.6453 10.5965C49.4395 10.5965 52.2177 10.3788 52.2177 10.3788C53.1432 10.3242 53.2519 11.6827 52.3277 11.7921C52.3277 11.7921 51.3963 11.9015 50.364 11.9556L56.5642 30.3997L58.2754 24.6808C59.0172 22.3076 59.5816 20.6031 59.5816 19.1343ZM48.3005 21.5009L43.1529 36.4598C44.6899 36.9117 46.3153 37.1588 47.9995 37.1588C49.9974 37.1588 51.9134 36.8134 53.6969 36.1862C53.6508 36.1128 53.609 36.0347 53.5748 35.9499L48.3005 21.5009ZM63.0538 11.7682C63.1276 12.3148 63.1694 12.9015 63.1694 13.5325C63.1694 15.2736 62.8442 17.2309 61.8649 19.6782L56.6242 34.831C61.7248 31.8565 65.1556 26.3302 65.1556 20.0004C65.1559 17.0174 64.3939 14.2123 63.0538 11.7682ZM47.9995 0C36.9721 0 28 8.97196 28 20.0001C28 31.0295 36.9721 40.0011 47.9995 40.0011C59.0266 40.0011 68 31.0295 68 20.0001C67.9997 8.97196 59.0266 0 47.9995 0ZM47.9995 39.0844C37.4777 39.0844 28.917 30.5231 28.917 20.0001C28.917 9.47767 37.4774 0.917078 47.9995 0.917078C58.5209 0.917078 67.081 9.47767 67.081 20.0001C67.081 30.5231 58.5209 39.0844 47.9995 39.0844Z" fill="#464342"/>
</g>
<defs>
<clipPath id="clip0_1570_3163">
<rect width="40" height="40" fill="white" transform="translate(28)"/>
</clipPath>
</defs>
</svg>
