<svg width="103" height="68" viewBox="0 0 103 68" fill="none" xmlns="http://www.w3.org/2000/svg">
<path d="M33.8132 62.034H39.6092V63H32.4972V62.146L38.1392 54.096H32.4972V53.13H39.4692V53.97L33.8132 62.034ZM43.8103 56.014C44.6783 56.014 45.3223 56.238 45.7423 56.686C46.1716 57.1247 46.3863 57.7967 46.3863 58.702V63H45.2803V61.838C45.1029 62.2393 44.8323 62.552 44.4683 62.776C44.1043 62.9907 43.6843 63.098 43.2083 63.098C42.7696 63.098 42.3636 63.0093 41.9903 62.832C41.6263 62.6547 41.3369 62.4073 41.1223 62.09C40.9076 61.7727 40.8003 61.4227 40.8003 61.04C40.8003 60.5267 40.9309 60.13 41.1923 59.85C41.4536 59.5607 41.8829 59.3553 42.4803 59.234C43.0776 59.1033 43.9083 59.038 44.9723 59.038H45.2803V58.576C45.2803 58.0067 45.1636 57.596 44.9303 57.344C44.6969 57.0827 44.3189 56.952 43.7963 56.952C43.0123 56.952 42.2329 57.1947 41.4583 57.68L41.0803 56.854C41.4349 56.602 41.8596 56.4013 42.3543 56.252C42.8583 56.0933 43.3436 56.014 43.8103 56.014ZM43.3623 62.202C43.9223 62.202 44.3796 62.0153 44.7343 61.642C45.0983 61.2593 45.2803 60.7693 45.2803 60.172V59.766H45.0283C44.2069 59.766 43.5816 59.8033 43.1523 59.878C42.7229 59.9433 42.4149 60.06 42.2283 60.228C42.0509 60.3867 41.9623 60.6247 41.9623 60.942C41.9623 61.306 42.0929 61.6093 42.3543 61.852C42.6249 62.0853 42.9609 62.202 43.3623 62.202ZM51.8921 56.014C52.4894 56.014 53.0168 56.1633 53.4741 56.462C53.9314 56.7607 54.2861 57.1807 54.5381 57.722C54.7901 58.254 54.9161 58.8747 54.9161 59.584C54.9161 60.2933 54.7901 60.914 54.5381 61.446C54.2861 61.9687 53.9314 62.3747 53.4741 62.664C53.0261 62.9533 52.4988 63.098 51.8921 63.098C51.3601 63.098 50.8934 62.9813 50.4921 62.748C50.1001 62.5147 49.8014 62.1833 49.5961 61.754V65.52H48.4621V56.182H49.5961V57.358C49.8014 56.9287 50.1001 56.5973 50.4921 56.364C50.8934 56.1307 51.3601 56.014 51.8921 56.014ZM51.6681 62.16C52.3308 62.16 52.8441 61.936 53.2081 61.488C53.5721 61.04 53.7541 60.4053 53.7541 59.584C53.7541 58.7627 53.5721 58.1233 53.2081 57.666C52.8441 57.1993 52.3308 56.966 51.6681 56.966C51.0054 56.966 50.4921 57.19 50.1281 57.638C49.7734 58.086 49.5961 58.7253 49.5961 59.556C49.5961 60.3867 49.7734 61.0307 50.1281 61.488C50.4921 61.936 51.0054 62.16 51.6681 62.16ZM56.6105 63V56.182H57.7445V63H56.6105ZM56.4985 53.228H57.8705V54.502H56.4985V53.228ZM65.5765 59.766H60.5925C60.6298 60.5593 60.8445 61.1613 61.2365 61.572C61.6285 61.9733 62.1838 62.174 62.9025 62.174C63.6958 62.174 64.4238 61.9033 65.0865 61.362L65.4645 62.188C65.1658 62.468 64.7831 62.692 64.3165 62.86C63.8498 63.0187 63.3738 63.098 62.8885 63.098C61.8245 63.098 60.9845 62.7853 60.3685 62.16C59.7618 61.5347 59.4585 60.6713 59.4585 59.57C59.4585 58.87 59.5938 58.254 59.8645 57.722C60.1351 57.1807 60.5131 56.7607 60.9985 56.462C61.4931 56.1633 62.0531 56.014 62.6785 56.014C63.5838 56.014 64.2931 56.3127 64.8065 56.91C65.3198 57.498 65.5765 58.31 65.5765 59.346V59.766ZM62.6925 56.896C62.0951 56.896 61.6145 57.0827 61.2505 57.456C60.8958 57.8293 60.6858 58.3567 60.6205 59.038H64.5825C64.5638 58.3473 64.3911 57.82 64.0645 57.456C63.7378 57.0827 63.2805 56.896 62.6925 56.896ZM71.1113 56.994L70.3693 57.064C69.6693 57.1293 69.1606 57.3487 68.8433 57.722C68.5353 58.0953 68.3813 58.5573 68.3813 59.108V63H67.2473V56.182H68.3533V57.372C68.7359 56.5787 69.4873 56.1353 70.6073 56.042L71.0133 56.014L71.1113 56.994Z" fill="black"/>
<g clip-path="url(#clip0_1570_3224)">
<path d="M52.0125 0C53.1424 0.00208083 54.2535 0.0977991 55.3337 0.278831V11.9523L63.5886 3.69764C64.5003 4.34684 65.3533 5.06889 66.1418 5.85754C66.9308 6.64618 67.655 7.50141 68.3042 8.41281L60.0489 16.6674H71.7231C71.9043 17.7474 72 18.8544 72 19.9864V20.0134C72 21.1454 71.9043 22.2545 71.7231 23.3344H60.0469L68.3042 31.587C67.655 32.4984 66.9308 33.3536 66.1442 34.1423H66.1418C65.3533 34.9309 64.5003 35.655 63.591 36.3022L55.3337 28.0475V39.721C54.2555 39.902 53.1443 39.9976 52.0145 40H51.9855C50.8553 39.9976 49.7485 39.902 48.6683 39.721V28.0475L40.4134 36.3022C38.5903 35.0058 36.9965 33.4098 35.6978 31.587L43.9531 23.3344H32.2789C32.0957 22.2524 32 21.1391 32 20.0072V19.9491C32.0019 19.6553 32.0211 19.2965 32.0486 18.9252L32.0572 18.8135C32.1387 17.7684 32.2789 16.6674 32.2789 16.6674H43.9531L35.6978 8.41281C36.345 7.50141 37.0672 6.64825 37.8558 5.86172L37.8597 5.85754C38.6467 5.06889 39.5017 4.34684 40.4134 3.69764L48.6683 11.9523V0.278831C49.7485 0.0977991 50.8576 0.00208083 51.9895 0H52.0125ZM52.0105 15.0007H51.9915C50.5057 15.0007 49.0826 15.2733 47.7673 15.7685C47.2743 17.0815 47.0013 18.5048 46.9994 19.9905V20.0092C47.0013 21.495 47.2743 22.9183 47.7693 24.2313C49.0826 24.7265 50.5057 24.9991 51.9915 24.9991H52.0105C53.4963 24.9991 54.9193 24.7265 56.2327 24.2313C56.7277 22.9162 57.0006 21.495 57.0006 20.0092V19.9905C57.0006 18.5048 56.7277 17.0815 56.2327 15.7685C54.9193 15.2733 53.4963 15.0007 52.0105 15.0007Z" fill="#FF4A00"/>
</g>
<defs>
<clipPath id="clip0_1570_3224">
<rect width="40" height="40" fill="white" transform="translate(32)"/>
</clipPath>
</defs>
</svg>
